<?xml version="1.0" standalone="yes"?>
<svg xmlns="http://www.w3.org/2000/svg" width="1099" height="1099">
<path style="fill:#010101; stroke:none;" d="M0 0L0 288L1 288C28.1439 243.658 57.908 202.255 93.4105 164.171C162.753 89.785 250.405 36.5204 345 1L314 0L244 0L0 0z"/>
<path style="fill:#494949; stroke:none;" d="M328 7L328 8L350 1C343.815 -1.38904 333.95 4.76587 328 7z"/>
<path style="fill:#8e9fc2; stroke:none;" d="M200 76C249.831 50.449 296.894 13.0386 353 1C343.322 -1.96655 324.167 9.51868 315 13.1998C285.04 25.2307 255.375 39.8164 228 56.9498C219.692 62.1499 205.328 67.6934 200 76z"/>
<path style="fill:#fefefe; stroke:none;" d="M618 1090C609.744 1077.35 599.582 1079 586 1079C568.29 1079 550.658 1080 533 1080C468.627 1080 404.295 1084 340 1084L290 1084C284.175 1084 275.097 1085.7 270.015 1082.4C260.151 1075.98 263.255 1063.17 274 1059.94C280.999 1057.84 288.807 1059.41 296 1058.91C308.855 1058.01 320.897 1056 334 1056C375.824 1056 418.187 1050.95 460 1048.09C496.651 1045.58 533.332 1043.6 570 1041.09C582.366 1040.24 594.665 1041.56 607 1040L607 1039C598.72 1036.55 588.607 1038 580 1038L526 1038C469.414 1038 412.651 1037 356 1037C334.736 1037 312.112 1039.21 291 1036.71C287.105 1036.25 274.256 1037.79 271.921 1034.46C269.719 1031.31 276.566 1031.03 278 1031C286.993 1030.84 296.005 1031 305 1031C341.392 1031 377.629 1030 414 1030C565.847 1030 718.006 1033.33 869 1021L869 1020L473 1020C412.892 1020 352.081 1024.25 292.004 1020.92C244.013 1018.27 194.565 1024.33 147 1019.25C138.442 1018.34 129.665 1018.99 121 1018.32C117.854 1018.08 113.988 1019.41 111.603 1016.67C108.948 1013.62 109.999 1007.73 110 1004C110.001 1000.6 109.413 996.142 111.742 993.318C114.883 989.51 122.632 991 127 991C141.826 991 156.291 990.982 171 992.553C183.566 993.895 198.95 991 212 991L321 991L758 991L891 991C909.229 991 932.43 996.194 950 991L943.465 976L941.834 936L935 794C928.157 791.547 920.878 788.129 915.174 783.573C888.325 762.124 901.618 716.978 904.871 688C907.532 664.296 906.666 640.852 908.043 617C908.457 609.835 917.622 603.619 916.573 597.144C915.62 591.263 897.664 588.036 893.363 582.674C885.982 573.473 883.195 558.972 879.293 548C876.577 540.36 871.897 533.633 869.244 526C864.571 512.554 870.185 497.299 872.536 484C876.527 461.426 879.031 441.834 874.626 419C873.502 413.176 871.854 401.807 866.853 398.144C857.876 391.57 842.604 391.607 838.499 379C827.705 345.852 833.376 307.81 821.312 275C818.611 267.652 815.906 247.561 808 245C807.998 261.899 807.329 290.984 784 282C777.535 292.64 781.341 309.886 780.985 322C780.61 334.733 772.539 346.389 771.174 359C770.041 369.457 775.856 379.958 774.635 390C774.059 394.741 771.727 400.499 767.895 403.486C764.57 406.079 760.007 405.614 758.344 410.059C754.867 419.355 755.03 431.209 753.711 441C751.494 457.459 746.962 474.498 746.043 491C745.2 506.151 744.696 521.855 746.104 537C747.435 551.316 753.207 566.829 743.986 579.96C741.385 583.664 737.398 586.1 734 589L734 590C738.391 596.061 745.057 602.19 745.867 610C746.661 617.67 743.05 636.063 737.775 641.907C726.782 654.085 701.512 653.41 689.004 644.076C673.832 632.753 675.558 607.938 677.17 591C677.803 584.345 680.182 573.528 677.258 567.228C675.369 563.158 667.85 561.99 664 560.587C652.913 556.547 639.758 554.508 631.09 545.907C617.005 531.93 623.467 502.609 620 484C598.928 484 579.63 482.507 564.104 465.989C556.754 458.169 546.641 430.083 532.104 438.318C527.096 441.155 524.43 448.24 521.666 453C517.034 460.975 510.858 469.194 503 474.19C494.353 479.687 472.043 478.771 467.024 487.144C458.79 500.881 470.473 519.207 462.142 532.996C454.257 546.046 434.602 538.925 428.638 551.018C419.584 569.378 429.481 593.861 419.562 613C415.412 621.008 403.715 630.506 394 628.171C387.369 626.577 383.811 621.12 379.486 616.424C373.707 610.151 365.839 603.421 363.133 594.999C360.368 586.39 362.997 575.022 363 566C363.007 548.347 366.498 530.531 367.907 513C369.577 492.215 369.705 470.72 372.184 450C374.04 434.489 374.817 419.696 375.004 404C375.057 399.511 377.012 394.455 376.396 390.059C375.684 384.974 369.635 386.356 366 385.74C359.923 384.711 353.379 381.286 351.573 375C347.312 360.174 349.041 339.308 350.09 324C350.457 318.63 354.189 307.925 349.411 303.643C346.785 301.289 342.087 303.254 339 303.402C331.81 303.746 324.216 302.821 317 302.821C310.497 302.821 302.354 300.122 296.058 302.742C288.545 305.869 291 319.569 291 326C291 345.99 294.938 371.331 286.295 390C283.594 395.833 279.126 402.229 273 404.713C264.486 408.165 258.705 403.363 254.353 414C237.863 454.298 248.824 502.032 244.83 544C243.805 554.769 242.968 567.21 235.61 575.91C231.939 580.25 220.297 583.933 218.777 589.143C217.609 593.145 221.334 596.007 223.035 599.089C225.541 603.632 225.992 608.937 226 614C226.042 639.119 221.311 663.981 221.004 689C220.728 711.481 224.028 733.446 223.039 756C222.615 765.68 222.17 778.804 214.66 786.037C208.974 791.513 196.696 793.648 189 794C189 830.963 183 867.315 183 904C183 913.03 179.679 935.936 165 931.066C151.717 926.66 154.436 908.907 155.043 898C156.709 868.084 163 838.069 163 808C163 794.88 154.117 782.129 167.039 772.649C174.296 767.326 191.273 771.665 195.721 765.682C202.468 756.608 198 736.656 198 726C198 703.798 197.059 681.088 199.17 659C200.533 644.73 206.576 628.094 204.815 614C203.155 600.716 181.959 594.564 184.265 581.015C187.273 563.333 218.223 574.125 224.232 556C227.726 545.463 224.105 532 225.17 521C228.994 481.48 230.549 442.84 240.239 404C242.169 396.266 249.515 390.502 257 388.61C263.056 387.08 268.084 390.291 270.906 382.985C280.302 358.652 271.62 332.892 275.21 308C275.931 302.999 279.478 298.928 280.157 294C281.385 285.093 278.775 275.924 280.899 267C287.792 238.041 299.856 208.998 300.001 179C300.039 171.155 304.52 159.48 302.527 152.149C301.289 147.594 296.099 150.362 293 150.791C285.496 151.831 269.256 154.596 267.122 143.999C263.712 127.073 296.761 140.998 301.972 134.397C307.349 127.586 297.735 112.69 300.203 104.718C301.676 99.9609 307.329 96.788 311.956 99.1829C324.454 105.652 312.895 122.778 319.028 131.667C322.206 136.275 336.757 131.986 341.996 133.318C345.534 134.217 349.472 138.03 348.863 141.999C346.572 156.938 322.046 141.352 320.148 153.019C313.166 195.946 346.837 229.906 355.698 270C361.19 294.852 358.659 321.716 362.919 347C363.905 352.854 362.62 360.517 364.894 365.941C367.666 372.554 383.259 367.149 389.856 372.638C398.058 379.464 394 401.328 394 411C394 439.767 393 468.221 393 497C393 511.542 395.231 526.536 393.83 541C392.314 556.661 379.722 581.697 395 594C401.133 569.106 393.382 529.992 426 520.637C430.02 519.484 433.806 518.215 438 518C441.625 498.472 434.895 474.561 456 462.228C468.137 455.136 482.871 460.758 493.826 449.826C508.321 435.365 515.745 407.798 542 413.39C567.19 418.754 569.566 447.88 590 458.598C603.655 465.76 622.792 456.981 633.957 467.189C644.937 477.23 645 499.089 645 513C645 518.366 642.836 525.003 645.457 529.957C648.378 535.48 655.5 537.026 661 538.717C670.979 541.785 681.777 544.599 689.91 551.518C700.525 560.549 697.035 570.283 696.093 582C695.053 594.947 694.152 611.171 696.148 624C697.619 633.449 712.075 635.712 719.571 632.142C724.432 629.826 724.498 625.599 725.328 621C726.113 616.651 728.822 612.532 727.433 608C725.104 600.405 716.656 595.681 717.148 587C717.735 576.652 731.085 575.875 732.775 565.999C734.829 554 731.19 542.675 730.104 531C728.669 515.564 730.364 500.159 733.371 485C736.256 470.457 739.777 455.699 741.711 441C743.167 429.931 743.602 416.442 747.738 406C751.103 397.508 762.296 397.873 764.467 388.999C767.221 377.742 764.382 364.537 765.043 353C765.628 342.784 771.934 333.123 773.56 323C775.387 311.63 772.879 299.195 775.761 288C782.665 261.178 787.169 234.348 792.428 207C793.695 200.411 798.059 195.293 799.58 189C800.917 183.472 797.759 178.391 797.174 173C796.552 167.28 798.247 160.654 796.682 155.109C795.374 150.476 789.843 150.839 786 151.286C778.455 152.163 761.933 156.392 758.992 145.985C757.703 141.426 762.817 136.862 767.001 136.383C773.794 135.605 788.644 143.943 793.972 136.486C801.555 125.874 779.74 108.052 795.015 101.958C806.276 97.4639 809.952 121.134 809.999 128C810.017 130.541 809.467 134.408 811.603 136.307C817.651 141.683 840.161 128.053 839.702 144.996C839.315 159.277 818.126 146.862 811.603 152.028C809.419 153.757 810.067 157.562 809.83 160C809.1 167.509 807.729 175.452 808.02 182.999C808.355 191.669 818.629 196.142 820.636 205C825.859 228.057 836.603 249.232 842.251 272C846.274 288.218 846.58 305.492 847.907 322C849.068 336.444 848.374 360.02 856.279 372.699C860.936 380.17 872.41 379.882 878.826 385.519C888.322 393.862 890.707 410.11 892.561 422C895.041 437.908 896.418 455.228 892.286 471C888.451 485.642 877.279 506.86 882.093 522C885.051 531.301 890.205 539.68 893.258 549C895.923 557.131 897.578 569.067 902.992 575.786C909.772 584.201 927.029 581.282 929.59 594.001C931.843 605.19 918.152 611.084 918.004 622C917.621 650.216 923.173 677.079 925.83 705C927.272 720.154 924.696 737.228 928.419 751.996C930.627 760.753 940.154 761.855 947 765.312C955.467 769.588 961.208 775.291 965.135 784C971.391 797.876 972.221 812.103 974.181 827C978.203 857.576 980.254 888.366 983.17 919C984.808 936.216 991.619 957.913 988.671 975C987.505 981.761 982.743 986.074 980 992C988.359 994.471 999.299 993.342 1008 992.961C1011.32 992.815 1016.65 990.858 1019.46 993.434C1022.21 995.955 1017.24 1000.89 1015.86 1003C1010.25 1011.54 1003.53 1018.96 997.156 1026.91C990.98 1034.6 981.887 1046.46 972.911 1050.68C965.652 1054.09 952.995 1051.69 945 1052.04C924.667 1052.93 904.397 1054 884 1054L884 1056C892.867 1056.18 902.342 1057.92 911 1059.79C919.441 1061.61 930.428 1065.06 939 1064.72C942.301 1064.59 948.633 1061.19 951.248 1064.6C953.358 1067.36 949.156 1070.35 947.281 1071.73C940.916 1076.41 933.958 1081.01 927 1084.76C915.938 1090.72 899.202 1089.55 887 1090.1C870.201 1090.87 852.017 1092.92 836 1098C840.969 1100.09 847.65 1099 853 1099L888 1099L941 1099C948.114 1099 958.273 1100.85 965 1098.4C974.35 1095 983.056 1083.48 990.424 1077C1013.62 1056.6 1035.17 1033.15 1054.34 1008.96C1065.94 994.32 1077.53 979.695 1087.69 964C1091.56 958.026 1097.95 951.276 1098.87 944C1100.98 927.215 1099 908.927 1099 892L1099 787L1099 464L1099 324L1099 284C1099 277.698 1100.2 269.962 1097.87 264C1089.34 242.253 1069.1 220.914 1054.42 203C1015.72 155.76 970.672 113.012 920 78.7454C883.904 54.3353 845.461 32.5909 805 16.2654C791.683 10.8922 778.111 3.8645 764 0.819458C744.168 -3.46033 720.276 0 700 0L571 0L424 0C401.611 0 374.911 -4.00354 353 0.514648C325.07 6.27405 296.335 21.8124 271 34.4799C190.193 74.8832 117.04 133.108 60.8804 204C39.8907 230.496 13.9026 260.329 1.07485 292C-2.00354 299.6 0 310.893 0 319L0 379L0 587L0 817L0 887C0 896.667 -2.29749 909.77 0.699074 919C4.40185 930.405 13.2657 940.94 19.5756 951C38.7529 981.574 61.2715 1010.02 85.4861 1036.71C98.8732 1051.47 113.151 1065.48 127.745 1079.04C134.321 1085.15 141.896 1094.02 150 1097.98C159.12 1102.43 176.909 1099 187 1099L275 1099C359.554 1099 444.739 1101.86 529 1096.09L588 1092.09C597.757 1091.42 608.492 1092.26 618 1090z"/>
<path style="fill:#8e9fc2; stroke:none;" d="M762 0L762 1L766 1L762 0z"/>
<path style="fill:#494949; stroke:none;" d="M766 0L766 1L775 3L766 0z"/>
<path style="fill:#010101; stroke:none;" d="M771 0L771 1C864.259 35.8234 947.596 88.1076 1017.58 159.286C1038.71 180.787 1057.15 204.215 1075.57 228C1083.24 237.902 1089.42 252.059 1099 260L1099 0L771 0z"/>
<path style="fill:#8e9fc2; stroke:none;" d="M767 1L767 2L793 11L793 10L767 1z"/>
<path style="fill:#494949; stroke:none;" d="M776 3L776 4L786 7L786 6L776 3M786.667 7.33337L787.333 7.66663L786.667 7.33337M324 8L324 9L327 9L324 8M789 8L789 9L793 10L793 9L789 8M322.667 9.33337L323.333 9.66663L322.667 9.33337M317 11L317 12L322 11L317 11M793 10L793 11L800 13L793 10z"/>
<path style="fill:#8e9fc2; stroke:none;" d="M794 11L794 12L798 13L798 12L794 11z"/>
<path style="fill:#494949; stroke:none;" d="M312 13L312 14L317 13L312 13z"/>
<path style="fill:#8e9fc2; stroke:none;" d="M798 13L798 14L824 24L824 23L798 13z"/>
<path style="fill:#494949; stroke:none;" d="M801 13L801 14L804 14L801 13M310.667 14.3334L311.333 14.6666L310.667 14.3334M804 14L804 15L811 17L811 16L804 14M307 15L307 16L310 16L307 15M306 16L307 17L306 16M303 17L303 18L306 18L303 17M811.667 17.3334L812.333 17.6666L811.667 17.3334M292 22L292 23L302 19L292 22M813 18L813 19L817 20L817 19L813 18M817 20L817 21L822 22L817 20M822.667 22.3334L823.333 22.6666L822.667 22.3334M288 25L291 23L288 25M824 23L824 24L872 48C863.105 37.3347 837.56 25.9052 824 23z"/>
<path style="fill:#8e9fc2; stroke:none;" d="M825 24L828 26L828 25L825 24z"/>
<path style="fill:#494949; stroke:none;" d="M283 26L283 27L288 26L283 26z"/>
<path style="fill:#8e9fc2; stroke:none;" d="M828.667 26.3334L829.333 26.6666L828.667 26.3334z"/>
<path style="fill:#494949; stroke:none;" d="M281.667 27.3334L282.333 27.6666L281.667 27.3334z"/>
<path style="fill:#8e9fc2; stroke:none;" d="M830 27L830 28L845 34L845 33L830 27z"/>
<path style="fill:#494949; stroke:none;" d="M277 29L277 30L281 29L277 29M273 31L273 32L277 31L273 31M272 32L273 33L272 32M269.667 33.3334L270.333 33.6666L269.667 33.3334M267.667 34.3334L268.333 34.6666L267.667 34.3334z"/>
<path style="fill:#8e9fc2; stroke:none;" d="M845 34L845 35L856 40L856 39L845 34z"/>
<path style="fill:#494949; stroke:none;" d="M265.667 35.3334L266.333 35.6666L265.667 35.3334M261 37L261 38L265 37L261 37M257 39L257 40L261 39L257 39M252 43L257 41L252 43z"/>
<path style="fill:#8e9fc2; stroke:none;" d="M856.667 40.3334L857.333 40.6666L856.667 40.3334M858 41L858 42L864 44L864 43L858 41z"/>
<path style="fill:#494949; stroke:none;" d="M250.667 43.3334L251.333 43.6666L250.667 43.3334M243 48L250 45L243 48z"/>
<path style="fill:#8e9fc2; stroke:none;" d="M864.667 44.3334L865.333 44.6666L864.667 44.3334M866 45L866 46C908.061 72.8015 956.835 97.6586 990 136L991 136C985.902 125.238 971.011 116.401 962 108.921C941.563 91.9543 919.53 76.61 897 62.5764C887.265 56.5129 876.994 48.4806 866 45z"/>
<path style="fill:#494949; stroke:none;" d="M241.667 48.3334L242.333 48.6666L241.667 48.3334M873 48L873 49L879 51L879 50L873 48M240 49L241 50L240 49M237 50L237 51L240 51L237 50M234 53L237 51L234 53M879 51L880 52L879 51M880.667 52.3334L881.333 52.6666L880.667 52.3334M232.667 53.3334L233.333 53.6666L232.667 53.3334M882.667 53.3334L883.333 53.6666L882.667 53.3334M229 56L232 54L229 56M884 54L887 56L884 54M226 58L229 56L226 58M887 56L888 57L887 56M888.667 57.3334L889.333 57.6666L888.667 57.3334M219 61L219 62L226 59L219 61M890.667 58.3334L891.333 58.6666L890.667 58.3334M892 59L893 60L892 59M893.667 60.3334L894.333 60.6666L893.667 60.3334M895 61L896 62L895 61M218 62L219 63L218 62M896.667 62.3334L897.333 62.6666L896.667 62.3334M216.667 63.3334L217.333 63.6666L216.667 63.3334M898 63L898 64L906 68L898 63M215 64L216 65L215 64M210 68L215 66L210 68M208.667 68.3334L209.333 68.6666L208.667 68.3334M906 68L909 70L906 68M207 69L208 70L207 69M202 73L207 71L202 73M909.667 70.3334L910.333 70.6666L909.667 70.3334M911 71L912 72L911 71M912.667 72.3334L913.333 72.6666L912.667 72.3334M200.667 73.3334L201.333 73.6666L200.667 73.3334M914 73L915 74L914 73M199 74C138.296 117.478 83.328 167.078 39.5795 228C29.2867 242.333 19.1689 256.83 10.142 272C6.52817 278.073 1.59763 284.034 0 291L1 291C31.3856 229.012 82.64 171.267 134.285 126.255C150.123 112.453 166.565 99.4749 183.424 86.9506C187.076 84.238 199.126 78.6958 199 74M915 74L915 75L921 78L915 74z"/>
<path style="fill:#8e9fc2; stroke:none;" d="M198 76L199 77L198 76M197 77L198 78L197 77M195.667 78.3333L196.333 78.6667L195.667 78.3333z"/>
<path style="fill:#494949; stroke:none;" d="M921 78L924 80L921 78z"/>
<path style="fill:#8e9fc2; stroke:none;" d="M191 82L195 79L191 82z"/>
<path style="fill:#494949; stroke:none;" d="M924 80L928 83L924 80z"/>
<path style="fill:#8e9fc2; stroke:none;" d="M188 84L191 82L188 84z"/>
<path style="fill:#494949; stroke:none;" d="M928 83L931 85L928 83z"/>
<path style="fill:#8e9fc2; stroke:none;" d="M183 88L188 84L183 88z"/>
<path style="fill:#494949; stroke:none;" d="M931.667 85.3333L932.333 85.6667L931.667 85.3333M933 86L933 88L935 88L933 86z"/>
<path style="fill:#8e9fc2; stroke:none;" d="M181.667 88.3333L182.333 88.6667L181.667 88.3333z"/>
<path style="fill:#494949; stroke:none;" d="M935 88L938 90L935 88z"/>
<path style="fill:#8e9fc2; stroke:none;" d="M177 92L181 89L177 92z"/>
<path style="fill:#494949; stroke:none;" d="M938 90L942 93L938 90z"/>
<path style="fill:#8e9fc2; stroke:none;" d="M176 92L177 93L176 92M174.667 93.3333L175.333 93.6667L174.667 93.3333z"/>
<path style="fill:#494949; stroke:none;" d="M942 93L943 94L942 93z"/>
<path style="fill:#8e9fc2; stroke:none;" d="M173 94L174 95L173 94z"/>
<path style="fill:#494949; stroke:none;" d="M943 94L944 95L943 94z"/>
<path style="fill:#8e9fc2; stroke:none;" d="M172 95L173 96L172 95z"/>
<path style="fill:#494949; stroke:none;" d="M944.667 95.3333L945.333 95.6667L944.667 95.3333z"/>
<path style="fill:#8e9fc2; stroke:none;" d="M169 98L172 96L169 98z"/>
<path style="fill:#494949; stroke:none;" d="M946 96L950 99L946 96z"/>
<path style="fill:#8e9fc2; stroke:none;" d="M168 98L169 99L168 98M189 794C196.398 793.842 209.049 791.926 214.66 786.815C222.28 779.873 222.623 766.488 223.039 757C224.029 734.433 220.728 712.463 221.004 690C221.24 670.751 227.563 650.101 226.625 631C226.218 622.725 227.284 613.051 225.405 605C224.338 600.428 218.386 594.401 219.086 590.054C219.994 584.409 232.783 580.543 236.363 575.91C243.067 567.231 243.838 555.429 244.83 545C248.824 503.038 237.881 455.267 254.353 415C258.874 403.946 265.097 408.335 273.999 404.713C279.731 402.381 283.77 396.453 286.295 391C295.053 372.083 291 346.261 291 326C291 318.962 288.732 306.046 297.019 302.742C303.193 300.281 310.668 302.921 317 302.921C324.014 302.922 330.998 303.671 338 303.66C341.292 303.656 345.712 301.681 348.686 303.773C353.908 307.448 350.44 317.881 350.09 323C349.003 338.864 347.143 360.641 351.573 375.999C354.923 387.617 375.215 382.177 376.092 391.019C377.926 409.512 374.38 430.648 372.184 449C369.705 469.72 369.577 491.215 367.907 512C366.47 529.879 363.001 547.991 363 566C362.999 575.415 360.212 586.968 363.133 595.996C365.699 603.924 373.086 610.63 378.675 616.424C383.205 621.121 386.294 626.351 393 628.207C403.266 631.048 415.944 621.963 420.035 613C428.733 593.942 419.921 570.049 428.638 552.005C434.917 539.008 454.201 546.943 462.142 533.985C470.557 520.254 459.251 501.951 467.024 488.058C472.236 478.741 494.857 480.02 503.999 474.19C517.174 465.787 520.296 445.18 533.043 438.319C546.228 431.221 556.662 458.62 563.21 465.989C578.449 483.141 599.012 484 620 484C620.798 490.308 622.673 496.668 622.961 503C623.641 517.985 618.978 535.357 631.09 546.815C639.717 554.975 653.169 556.995 664 560.953C668.192 562.485 675.308 563.566 677.258 568.109C679.879 574.215 677.776 583.629 677.17 590C675.369 608.918 673.273 637.167 693 647.28C704.862 653.361 728.249 652.899 737.775 642.816C742.786 637.512 742.294 630.669 743.133 624C745.046 608.792 746.116 602.01 734 590L734 589C754.786 576.162 747.987 556.249 746.104 536C744.76 521.54 745.238 506.466 746.043 492C746.962 475.498 751.494 458.459 753.711 442C755.042 432.119 754.974 420.449 758.344 411.019C760.218 405.776 765.063 406.583 768.786 403.486C772.201 400.646 774.008 395.271 774.671 391C776.053 382.083 771.227 372.121 771.054 363C770.814 350.313 779.007 338.402 780.79 326C782.895 311.361 777.853 295.864 784 282C807.314 294.221 808 260.202 808 245C814.512 248.505 815.375 259.499 817.988 266C827.578 289.863 828.321 315.732 832.134 341C833.93 352.902 833.022 374.18 840.573 383.907C847.553 392.899 860.268 392.144 867.686 399.533C871.924 403.755 873.516 414.247 874.626 420C878.906 442.186 876.413 461.067 872.536 483C870.145 496.53 865.597 510.095 868.379 524C870.007 532.14 875.499 539.335 878.525 547C882.981 558.284 885.273 572.913 892.71 582.674C896.645 587.839 916.379 592.373 916.248 598.058C916.15 602.329 911.023 606.16 909.367 610C907.098 615.263 907.71 622.328 907.17 628C906.568 634.321 904.769 641.755 905.108 648C905.388 653.158 907.441 657.706 906.816 663C905.851 671.169 906.062 679.928 904.741 688C898.902 723.682 886.76 783.063 935 794C936.391 821.167 938.764 848.672 939.961 876C940.856 896.446 939.651 916.607 941.834 937C943.835 955.687 939.835 974.455 950 991C930.753 995.582 907.71 991 888 991L752 991L318 991L213 991C198.374 991 181.113 994.009 167 991.754C153.403 989.581 138.753 991 125 991C121.145 991 113.682 989.566 111.179 993.318C109.278 996.167 110 1000.76 110 1004C110 1007.66 108.718 1014.56 111.603 1017.39C113.957 1019.7 118.077 1018.33 121 1018.51C129.683 1019.06 138.382 1018.94 147 1019.57C194.273 1023.08 242.627 1018.72 290.184 1020.91C349.981 1023.67 410.206 1020 470 1020L869 1020L869 1021C835.347 1022.47 801.681 1027.49 768 1028.96C650.096 1034.12 531.071 1030 413 1030C376.629 1030 340.392 1031 304 1031C295.334 1031 286.666 1030.94 278 1031C276.484 1031.01 268.955 1030.95 271.176 1034.46C273.221 1037.69 287.257 1036.47 291 1036.83C311.957 1038.82 333.943 1037 355 1037C410.643 1037 466.429 1038 522 1038L577 1038C586.749 1038 597.479 1036.73 607 1039L607 1040C557.778 1043.88 508.258 1044.72 459 1048.09C417.187 1050.95 374.824 1056 333 1056C319.897 1056 307.855 1058.01 295 1058.91C287.809 1059.41 279.997 1057.84 273 1059.94C262.936 1062.97 259.864 1076.25 269.043 1082.4C274.03 1085.74 283.245 1084 289 1084L339 1084C404.304 1084 469.622 1080 535 1080C551.988 1080 568.958 1079 586 1079C592.028 1079 601.251 1077.27 606.871 1079.6C610.69 1081.19 615.087 1086.96 618 1090L586 1092.17L502 1098L502 1099L583 1094.09L620 1091C618.713 1086.64 612.468 1079.55 607.91 1078.32C601.1 1076.48 592.04 1078 585 1078L536 1078C470.988 1078 405.944 1083 341 1083L291 1083C285.203 1083 276.161 1084.7 271.094 1081.44C262.501 1075.91 264.771 1063.01 275.015 1061.22C300.112 1056.84 326.598 1059.32 352 1056.29C361.94 1055.1 372.058 1056.78 382 1055.83C426.049 1051.64 470.888 1047.97 515 1046.04C546.618 1044.65 578.541 1044.98 610 1041C608.679 1033.39 596.928 1036 591 1036L531 1036C446.009 1036 360.905 1035 276 1035L276 1034C297.669 1029.98 321.023 1032 343 1032L457 1032C583.714 1032 712.053 1036.76 838 1024.17C855.961 1022.37 873.962 1023.28 892 1021C889.119 1016.92 883.546 1018 879 1018L845 1018L702 1018C571.997 1018 441.885 1019.63 312 1019C245.633 1018.68 177.71 1015.41 112 1017L113 993C163.683 990.175 215.142 994.601 266 993.996C415.184 992.221 564.591 993 714 993L875 993C900.021 993 927.246 997.596 952 993C951.049 986.484 946.18 981.752 945.289 975C941.778 948.37 941.672 919.852 941.015 893C940.507 872.266 939.945 851.683 939.039 831C938.588 820.681 939.973 810.174 937.635 800C935.341 790.02 926.167 789.658 919 784.387C908.737 776.839 902.027 765.784 901.09 753C899.568 732.24 904.253 710.575 905.907 690C907.46 670.681 906.341 651.211 908.17 632C908.792 625.463 908.683 617.088 911.228 611C913.226 606.222 919.648 601.869 918.333 596.133C916.706 589.036 898.998 587.405 894.174 580.957C887.327 571.806 885.016 558.59 881.113 548C878.194 540.08 873.166 532.996 870.616 525C864.866 506.967 874.128 483.826 877.625 466C881.608 445.697 879.765 420.098 871.058 401.015C866.383 390.769 848.823 391.847 841.97 381.91C835.512 372.545 837.085 359.604 835.816 349C832.902 324.664 831.147 295.792 822.32 273C819.196 264.934 817.128 245.744 808 243C803.211 253.777 807.516 269.163 800.852 278.891C795.351 286.921 784.479 276.976 780.703 285.059C775.747 295.665 780.309 309.86 779.621 321C778.888 332.871 771.569 343.436 770.133 355C768.622 367.162 774.454 379.606 772.786 391C770.979 403.346 757.628 402.066 755.38 413C752.233 428.307 752.174 444.557 749.675 460C746.957 476.799 743.079 493.89 743.079 511C743.079 528.393 748.694 545.799 747.961 563C747.693 569.284 745.551 575.877 741.387 580.699C738.979 583.488 733.278 585.623 733.412 589.873C733.67 598.008 744.421 602.923 744.346 612C744.313 615.985 741.688 619.283 740.637 623C739.169 628.196 741.342 634.214 738.258 638.96C730.553 650.817 708.884 651.48 697 647.183C671.002 637.783 678.967 602.796 679 582C679.007 577.492 680.958 571.29 679.254 567.058C677.208 561.976 669.595 560.838 665 559.214C653.405 555.114 638.559 552.987 630.38 542.985C617.67 527.443 630.389 503.597 621.991 486.148C618.994 479.921 602.979 483.553 597 481.985C583.948 478.564 571.146 473.012 562.749 462C556.182 453.387 549.2 434.047 536 435.229C527.168 436.02 523.248 447.582 518.996 454C510.972 466.11 502.407 475.104 488 479.123C481.523 480.93 469.338 478.805 465.727 486.214C458.826 500.371 468.966 520.144 460.146 532.982C451.808 545.118 432.226 538.023 426.483 552.001C418.724 570.887 429.044 596.012 417.08 614C411.791 621.953 399.695 630.194 390.039 624.58C386.085 622.281 383.448 618.174 380.254 615C374.335 609.12 367.146 602.28 364.649 594C360.465 580.124 365.45 559.26 366.83 545C369.758 514.745 369.931 484.176 373.174 454C375.377 433.49 379.78 410.82 377.941 390.005C376.998 379.32 357 387.872 353.434 374.996C349.548 360.967 350.198 337.412 352.131 323C352.799 318.02 355.553 305.46 350.566 302.028C347.479 299.903 342.449 301.281 339 301.406C331.745 301.668 324.291 301.003 317 301C309.829 300.997 302.082 299.343 295.044 301.433C287.094 303.794 290 318.65 290 325C290 346.022 294.311 374.317 282.729 393C280.188 397.1 276.767 401.682 271.985 403.195C263.272 405.953 258.066 401.295 253.363 412C245.998 428.76 245.742 449.148 244.961 467C244.167 485.125 243 502.797 243 521C243 532.312 244.528 544.897 242.181 556C240.619 563.394 237.762 572.401 231.906 577.485C227.699 581.137 217.861 583.851 217.188 590.019C216.37 597.522 224.737 604.547 224.985 613C225.934 645.374 218.597 677.355 220.039 710C220.998 731.711 227.933 761.939 215.914 781.985C209.769 792.235 194.972 785.809 189.028 792.778C184.722 797.825 188.247 815.471 187.961 822C186.816 848.146 184.798 875.227 181.424 901C180.395 908.862 179.884 937.145 164.001 928.87C152.338 922.795 156.19 907.594 157.093 897C159.556 868.091 165 838.06 165 809C165 796.388 155.289 780.817 169.289 772.688C176.415 768.55 192.126 772.394 196.856 766.682C204.632 757.29 200 738.197 200 727C200 703.693 198.412 679.171 201.184 656C202.705 643.29 208.048 627.628 206.696 615C205.268 601.661 183.324 593.82 186.323 581.001C190.039 565.114 218.762 575.36 225.03 558C228.731 547.75 224.925 534.726 226.129 524C230.581 484.342 230.842 443.823 241.499 405C243.589 397.386 250.365 391.502 258 389.97C264.551 388.656 269.107 392.093 272.272 383.996C280.985 361.703 276.441 335.335 277.015 312C277.185 305.051 282.089 299.381 282.258 293C282.428 286.613 280.262 280.565 281.325 274C286.538 241.789 299.061 211.663 302.17 179C302.906 171.265 305.754 159.524 304.393 152.059C303.547 147.419 298.527 148.004 295 148.615C288.508 149.739 270.911 153.676 268.752 143.988C267.858 139.978 272.574 136.843 276 136.368C283.759 135.292 296.741 141.907 303.397 135.911C308.361 131.438 301.928 114.006 301.662 108C301.487 104.051 305.567 99.1752 309.826 99.7423C321.513 101.299 313.031 126.026 317.179 132.771C320.432 138.059 333.46 133.638 339 134.055C342.812 134.342 347.555 136.425 347.338 141.014C346.552 157.647 319.123 136.784 318.044 154C317.161 168.087 318.111 184.568 322.702 198C325.261 205.485 331.934 211.833 335.475 219C341.673 231.541 344.086 244.897 348.522 258C350.056 262.53 353.442 266.39 354.581 271C360.693 295.743 357.599 323.691 361.741 349C362.712 354.936 361.172 361.144 363.344 366.941C366.717 375.945 383.959 366.926 390.397 376.105C393.281 380.218 392 387.233 392 392L392 431C392 467.727 395.596 506.491 391.899 543.004C390.391 557.896 380.003 579.228 390.965 592.833C394.443 597.149 397.432 592.917 397.892 588.999C400.24 569.004 397.815 544.314 414.04 529.174C419.96 523.65 437.243 522.558 440.258 515.853C446.743 501.427 437.012 485.612 448.44 471.286C459.333 457.63 474.321 463.786 488 456.246C501.215 448.962 504.885 433.195 515.174 423.188C518.137 420.306 522.111 418.033 526 416.649C559.917 404.576 566.553 447.364 589 459.816C603.047 467.608 625.126 457.394 635.363 471.039C643.704 482.158 643 499.77 643 513C643 518.835 641.208 528.131 645.318 532.857C655.945 545.076 678.264 541.809 690.214 553.786C693.715 557.294 696.554 563.033 696.88 568C697.182 572.594 695.318 577.438 694.718 582C692.169 601.386 687.905 644.197 719.985 633.436C725.112 631.716 725.507 627.576 726.511 623C727.537 618.321 730.817 612.822 729.258 608C726.966 600.914 717.958 594.99 718.532 587C719.215 577.507 732.896 575.096 734.671 565C736.826 552.743 732.054 540.899 731.093 529C729.962 514.995 732.279 501.696 734.209 488C736.194 473.917 740.81 460.052 742.791 446C744.525 433.696 744.243 418.599 749.008 407C752.305 398.978 763.606 399.166 765.682 390.996C768.603 379.502 765.002 365.809 766.104 354C767.102 343.314 773.838 333.554 775.671 323C777.555 312.161 774.282 300.756 777.005 290C783.787 263.199 788.303 236.375 793.468 209C794.754 202.181 799.4 196.558 800.722 190C802.431 181.522 800.453 164.607 798.656 156.005C795.297 139.93 763.834 160.573 760.832 144.999C760.031 140.844 764.485 138.356 768.001 138.395C775.178 138.475 788.087 145.091 794.397 139.142C802.026 131.95 791.299 117.418 791.103 110.005C790.999 106.089 794.865 102.262 798.911 103.559C813.157 108.126 802.5 130.016 809.742 137.258C814.315 141.83 823.53 136.774 829 137.225C833.313 137.58 838.156 139.995 837.793 144.985C836.996 155.964 815.813 146.065 810.318 150.607C805.52 154.573 806.247 177.673 806.499 183.999C806.836 192.437 817.784 198.058 819.622 207C824.508 230.767 835.915 252.458 841.407 276C845.569 293.845 844.353 312.831 846.171 331C847.272 342.013 848.621 366.084 855.653 374.695C860.649 380.814 869.78 380.806 875.96 385.224C884.843 391.575 888.057 404.758 889.741 415C892.53 431.965 894.858 449.921 891.336 467C887.766 484.304 877.5 503.072 880.213 521C881.339 528.441 886.536 535.079 889.239 542C893.343 552.506 894.492 567.972 901.789 576.699C907.892 583.997 925.141 582.92 927.678 593.04C930.548 604.486 916.309 613.022 916.015 625C915.456 647.737 921.341 669.642 922.911 692C924.233 710.832 921.956 732.721 926.529 751C929.611 763.321 941.903 763.385 951 769.247C959.011 774.409 962.832 782.545 966.536 791C974.741 809.725 973.232 833.98 975.17 854C978.037 883.633 983.309 913.405 984.957 943C985.537 953.422 989.402 966.882 986.476 977C985.442 980.577 977.567 989.448 979.176 992.397C980.594 994.996 986.607 994 989 994L1020 994L990.17 1032L972 1048.98L942 1051L882 1053C884.345 1059.69 894.221 1058.49 900 1059.18C918.161 1061.36 932.643 1065.83 951 1064C948.576 1070.96 940.367 1074.71 934.424 1078.54C912.585 1092.62 881.147 1088.17 856 1091.18C846.479 1092.33 837.653 1097.39 828 1098L828 1099C837.006 1098.97 845.245 1095.38 854 1093.63C864.175 1091.6 875.606 1091.27 886 1090.3C898.677 1089.11 915.185 1091.12 927 1085.29C932.265 1082.69 952.367 1072.79 952.364 1066.13C952.361 1060.27 939.198 1064.8 936 1064.21C919.059 1061.12 901.291 1056.14 884 1056L884 1054C904.741 1054 925.328 1052.94 946 1052.04C953.997 1051.69 965.441 1053.98 972.911 1051.11C981.639 1047.75 989.63 1036.36 995.721 1029.49C1003.2 1021.04 1010.26 1012.39 1016.52 1003C1018.02 1000.74 1022.89 995.597 1019.57 993.028C1016.64 990.751 1011.3 992.685 1008 992.911C999.132 993.518 988.658 994.061 980 992C993.603 972.378 986.902 951.41 984.184 929C980.078 895.141 979.945 860.741 974.324 827C971.785 811.758 971.598 797.334 965.135 783C961.241 774.363 955.492 768.868 947 764.817C939.886 761.423 930.663 759.963 928.419 750.999C924.73 736.259 927.273 719.156 925.83 704C923.24 676.778 917.631 650.501 918.004 623C918.163 611.297 932.431 605.433 929.605 593.004C926.848 580.877 909.54 583.567 902.992 574.895C897.677 567.856 895.985 556.322 893.258 548C890.204 538.679 885.05 530.311 882.093 521C877.583 506.798 888.67 485.805 892.286 472C896.572 455.638 895.134 437.503 892.561 421C890.743 409.34 888.448 392.699 878.826 384.764C872.18 379.282 860.971 379.706 856.279 371.826C852.037 364.704 851.823 353.062 850.816 345C848.631 327.506 846.449 310.76 845.985 293C845.452 272.564 835.525 252.919 828.792 234C825.062 223.515 823.425 212.51 820.096 202C817.748 194.589 808.633 190.547 808.062 182.999C807.636 177.358 807.477 155.256 812.318 152.028C819.369 147.326 840.801 159.38 839.851 144C838.908 128.718 819.399 140.846 812.318 136.107C809.475 134.205 810.02 129.944 809.999 127C809.947 119.41 806.796 97.8621 795.015 101.569C779.065 106.587 800.446 125.453 793.972 135.721C788.532 144.351 773.355 134.972 766.004 136.294C761.686 137.07 757.491 141.345 758.569 145.985C762.568 163.196 792.826 141.627 796.682 156.044C798.28 162.018 796.398 168.871 797.301 175C797.934 179.3 800.528 183.579 799.566 188C798.201 194.271 793.688 199.45 792.428 206C787.169 233.348 782.665 260.178 775.761 287C772.879 298.195 775.387 310.63 773.56 322C771.934 332.123 765.628 341.784 765.043 352C764.382 363.543 767.211 376.734 764.467 388C762.2 397.307 751.116 396.506 747.738 405.001C743.592 415.43 743.166 428.94 741.711 440C739.724 455.105 735.653 469.959 733.194 485C730.613 500.794 728.614 515.975 730.104 532C731.132 543.051 734.716 553.627 732.775 565C731.072 574.983 718.069 575.896 717.112 586C716.164 596.001 725.111 600.353 727.393 609C728.446 612.985 725.74 617.095 725.181 621C724.508 625.696 723.506 629.925 718.714 632.142C710.361 636.006 696.942 632.142 696.059 622C694.974 609.544 695.092 595.463 696.093 583C697.058 570.994 701.172 559.819 689.91 550.761C678.668 541.719 652.012 542.008 645.461 528.985C643.082 524.257 645.008 517.175 645 512C644.98 498.804 645.074 476.919 634.895 467.189C627.842 460.448 619.644 462.894 611 462.996C601.884 463.104 593.357 460.988 586 455.319C566.666 440.424 561.24 407.889 530 413.329C506.608 417.402 505.016 445.169 486 454.904C476.626 459.702 465.268 457.001 456 461.688C435.047 472.282 440.367 499.268 438 518C395.524 518.994 400.532 564.641 395 594C380.763 577.724 393.147 558.558 393.961 540C395.861 496.68 394 452.396 394 409C394 400.085 397.814 379.192 390.697 372.638C383.671 366.168 368.08 372.919 364.894 364.98C362.772 359.693 364.013 352.646 363.08 347C358.848 321.392 361.255 294.149 355.698 269C354.766 264.785 351.77 261.145 350.425 257C346.169 243.881 343.395 230.356 337.052 218C333.279 210.65 326.289 203.748 323.702 196C319.749 184.158 318.969 167.43 320.059 155.001C321.34 140.387 347.536 157.569 349.353 141.999C349.805 138.12 346.598 134.252 342.985 133.318C337.09 131.795 323.927 136.256 319.603 131.593C312.262 123.675 324.544 105.681 312.892 99.179C308.581 96.7732 302.511 98.4907 300.473 103.044C296.542 111.825 307.169 125.698 301.968 133.682C295.986 142.866 266.164 125.235 266.573 143.001C266.854 155.24 285.52 151.577 293 150.896C296.313 150.594 301.48 148.131 302.393 153.062C303.513 159.115 300.518 167.744 300.09 174C297.83 206.997 284.972 236.579 280.3 269C279.133 277.096 281.172 285.532 280.019 293.576C278.526 303.987 274.947 311.827 275.001 323C275.095 342.521 278.006 363.303 270.906 381.996C267.94 389.805 262.551 386.925 256 388.61C249.224 390.352 242.7 395.121 240.498 402C228.37 439.892 228.952 480.912 225.17 520C224.105 531.001 227.726 544.463 224.232 555C217.971 573.885 186.999 563.074 183.868 581.015C181.404 595.137 203.112 601.329 204.815 615C206.448 628.111 200.451 644.593 199.17 658C197.091 679.758 198 702.13 198 724C198 735.305 202.221 755 195.721 764.852C191.278 771.587 174.451 767.144 167.039 771.994C153.002 781.181 163 795.779 163 809C163 839.396 155.159 869.69 155.001 900C154.945 910.617 151.213 926.374 164 931.103C179.427 936.808 183 914.868 183 905C183 867.987 189 831.298 189 794M165 101L168 99L165 101z"/>
<path style="fill:#494949; stroke:none;" d="M307 99L308 100L307 99z"/>
<path style="fill:#2c4a94; stroke:none;" d="M808 243C816.942 247.467 818.798 264.228 822.078 273C830.923 296.653 831.631 324.064 835.675 349C837.414 359.72 835.335 372.084 841.367 381.91C848.129 392.924 865.923 390.547 871.058 402.004C879.4 420.616 881.648 445.215 877.628 465C874.062 482.549 865.567 505.135 869.9 523C871.986 531.601 877.369 538.786 880.467 547C884.626 558.03 886.829 572.468 894.174 581.896C899.065 588.174 915.923 589.006 917.917 596.133C919.347 601.243 913.02 605.714 911.228 610C908.219 617.198 908.955 626.742 908.228 634.424C906.763 649.911 908.067 665.405 906.855 680.985C905.005 704.777 899.95 729.006 901.039 753C901.602 765.395 908.036 777.09 918 784.387C927.109 791.057 935.994 791.089 938.242 804C941.166 820.789 939.294 838.984 940.039 856C941.28 884.326 942.721 912.686 943.961 941C944.497 953.242 943.293 965.9 945.62 978C946.695 983.595 950.603 987.615 952 993L888 993L757 993L409 993.996L267 993.961L169 993.961L113 993L113 1017C129.637 1014.94 147.973 1018.19 165 1018C213.284 1017.44 261.879 1018.42 310 1019C439.145 1020.53 568.69 1018 698 1018L841 1018L876 1018C881.593 1018 887.672 1016.94 892 1021L768 1030.96L568 1031L282 1033L282 1034C305.974 1041.09 338.064 1036 363 1036L531 1036L591 1036C597.197 1036 607.693 1033.7 610 1041C554.007 1045.42 498.056 1048.07 442 1051.91C411.949 1053.97 380.889 1052.71 351 1056.29C332.424 1058.51 313.533 1059.17 295 1060.9C288.177 1061.53 280.699 1059.78 274.001 1061.3C264.666 1063.43 262.236 1076.02 270.189 1081.44C275.069 1084.76 284.341 1083 290 1083L339 1083C404.271 1083 469.666 1078 535 1078L585 1078C591.627 1078 599.565 1075.69 605.985 1077.57C611.308 1079.14 617.649 1086.17 620 1091L531 1098L531 1099L710 1099C748.103 1099 788.092 1102.51 826 1098.83C836.03 1097.86 845.197 1093.23 855 1091.46C880.93 1086.79 912.384 1093.37 935.286 1078.42C940.986 1074.7 948.316 1071.57 951 1065C945.897 1063.75 941.239 1066.49 936 1065.79C924.215 1064.21 912.799 1060.99 901 1059.3C894.574 1058.38 885.724 1059.4 882 1053C902.024 1053 921.916 1051 942 1051C950.553 1051 965.295 1052.59 973 1048.82C984.121 1043.39 994.007 1029.29 1001.75 1020C1007.84 1012.69 1017.1 1003.56 1019 994L990 994C987.506 994 981.489 994.985 979.921 992.397C978.365 989.826 985.843 980.328 986.787 977C989.663 966.862 985.468 953.442 984.96 943C983.506 913.085 978.03 882.935 975.17 853C973.266 833.075 974.685 808.664 966.536 790C963.134 782.206 959.448 773.935 952 769.272C942.411 763.268 929.659 762.891 926.525 750C922.055 731.608 924.238 709.909 922.911 691C921.388 669.313 915.473 648.047 916.015 626C916.322 613.478 930.731 605.242 927.681 593.004C925.017 582.313 908.191 584.013 901.85 576.381C894.466 567.493 893.404 551.661 889.239 541C886.537 534.082 881.173 527.461 880.188 520C877.906 502.71 887.84 484.683 891.335 468C895.031 450.357 892.623 431.532 889.741 414C888.17 404.447 885.246 391.238 876.907 385.304C870.26 380.575 860.919 380.632 855.653 373.826C848.59 364.698 847.311 341.403 846.171 330C844.379 312.089 845.232 293.638 841.49 276C836.427 252.134 824.902 229.904 819.61 206C817.65 197.144 807.016 191.59 806.789 183C806.611 176.248 805.367 154.664 811.148 150.643C816.928 146.621 837.291 155.652 837.847 144.985C838.107 140.01 834.535 137.712 829.999 137.189C824.266 136.528 814.075 141.933 809.742 136.682C803.496 129.112 812.776 106.814 798.907 103.072C794.825 101.971 790.567 105.997 790.758 110.004C791.138 117.996 801.601 130.5 794.397 138.486C788.63 144.878 775.914 138.827 769 138.326C764.855 138.027 759.911 139.939 760.507 144.989C761.11 150.101 766.828 151.081 771 150.957C778.978 150.719 796.663 145.511 798.772 157.001C800.279 165.217 802.274 180.972 800.725 189C799.453 195.593 794.751 201.195 793.468 208C788.377 234.986 784.287 261.517 777.478 288C774.592 299.229 777.625 310.754 775.671 322C773.778 332.897 766.987 342.895 766.093 354C765.171 365.465 768.493 378.847 765.682 389.999C763.545 398.48 752.534 398.028 749.344 406.001C744.594 417.873 744.619 432.433 742.792 445C740.657 459.685 736.125 474.219 734.181 489C732.363 502.817 729.952 515.875 731.093 530C732.004 541.272 736.714 552.377 734.671 564C732.82 574.537 719.391 576.921 719.059 587C718.767 595.882 726.456 600.278 728.962 608C730.404 612.442 727.616 617.645 726.662 622C725.552 627.067 724.568 631.6 718.996 633.436C687.373 643.856 692.821 599.187 694.951 581C695.46 576.65 697.08 572.408 696.942 568C696.785 562.978 694.15 557.227 690.61 553.669C679.12 542.12 651.45 544.568 644.028 529.995C641.678 525.381 643 518.046 643 513C643 499.49 644.213 478.623 633.787 468.305C623.699 458.321 603.666 466.828 591 460.345C571.69 450.46 568.513 423.299 547 416.46C512.837 405.599 509.884 443.633 487 456.246C472.385 464.302 455.977 457.177 446.044 474.039C438.169 487.408 445.652 501.981 440.258 514.942C437.039 522.675 419.557 523.096 413.174 529.29C397.915 544.097 400.149 568.718 397.892 588C397.427 591.972 394.461 596.355 390.965 591.883C380.353 578.306 390.526 558.735 391.896 544C395.242 508.009 392 470.163 392 434L392 392C392 387.151 393.473 379.32 390.397 375.214C383.315 365.761 366.403 376.824 363.059 364.995C360 354.176 360.694 341.179 359.91 330C359.392 322.606 357.093 315.467 357.004 308C356.852 295.25 357.872 280.141 353.441 268C347.401 251.446 342.603 234.122 335.335 218C332.218 211.085 326.678 205.743 323.441 199C317.8 187.245 315.883 165.781 318.228 153.001C320.987 137.965 344.974 156.98 347.458 141.996C348.225 137.366 344.045 134.563 339.999 134.109C334.093 133.445 321.744 137.893 317.742 132.757C312.514 126.047 322.002 100.071 308.985 99.7384C292.949 99.3289 308.646 127.385 303.968 134.581C299.236 141.862 283.832 136.053 277 136.147C272.871 136.204 267.537 139.157 268.377 143.999C271.098 159.695 300.738 140.367 303.968 152.059C305.959 159.264 302.608 171.434 302.09 179C299.869 211.391 286.485 241.177 281.325 273C280.233 279.734 282.604 286.447 281.875 293C281.219 298.899 277.318 303.694 277.039 310C275.979 334 280.819 359.872 272.387 382.999C269.285 391.508 263.854 388.464 257 390.059C249.504 391.803 243.295 397.415 241.529 405C233.965 437.487 230.362 469.809 228.09 503C227.382 513.329 225.999 523.664 226 534C226 541.524 227.572 549.701 225.081 557.001C221.302 568.074 211.058 569.691 201 571.297C195.276 572.211 187.357 574.415 186.232 581.004C183.836 595.04 204.675 601.303 206.546 615C208.194 627.072 202.642 642.816 201.184 655C198.415 678.148 200 702.674 200 726C200 737.68 204.239 755.803 196.856 765.852C191.76 772.788 175.158 768.191 167.325 773.765C155.204 782.389 165 797.791 165 810C165 839.234 158.12 868.81 157.011 898C156.638 907.823 152.034 922.914 163.015 928.682C180.313 937.769 180.371 909.895 181.235 901.039C183.763 875.13 186.82 849.049 187.961 823C188.268 815.983 184.732 799.218 189.028 793.522C194.771 785.91 210.811 792.823 216.442 781.985C227.5 760.702 221.037 731.584 220.039 709C218.628 677.042 225.386 645.74 224.996 614C224.896 605.808 216.252 596.841 217.412 590.019C218.357 584.457 227.014 581.929 230.957 578.761C236.922 573.968 239.946 566.293 241.664 559C244.447 547.177 243 534.071 243 522C243 503.51 244.155 485.405 244.961 467C245.74 449.195 246.14 428.586 253.799 412C259.809 398.987 274.626 406.968 282.728 394C294.32 375.447 290 346.907 290 326C290 318.878 287.003 304.022 296.015 301.433C302.619 299.536 310.244 301 317 301C324.241 301 331.825 301.937 339 301.486C342.623 301.258 347.499 299.938 350.566 302.603C355.524 306.912 352.47 317.437 352.09 323C351.035 338.402 349.074 361.097 353.434 375.911C357.135 388.488 376.945 378.984 377.941 391.001C379.656 411.717 374.589 433.57 373.09 454C370.862 484.378 370.3 514.728 366.715 545C363.234 574.388 359.112 606.812 389.09 624.442C399.033 630.29 412.44 623.064 417.633 613.999C428.207 595.54 418.967 571.902 426.479 553C432.593 537.617 452.686 546.367 460.772 532.982C468.543 520.116 459.403 501.152 465.727 487.094C469.509 478.686 481.811 481.065 489 478.957C502.652 474.953 511.293 466.648 518.996 455C523.178 448.676 527.341 436.501 536 435.438C543.442 434.523 548.425 441.627 551.996 447C561.996 462.049 571.164 474.075 589 479.806C596.268 482.141 618.971 480.275 621.991 487.059C629.735 504.453 617.66 528.901 630.38 543.957C638.23 553.249 653.997 555.74 665 559.576C670.105 561.355 677.002 562.337 679.258 568.018C681.229 572.984 679.14 578.889 679.015 584C678.521 604.133 671.618 637.717 696 647.007C707.877 651.532 730.447 651.321 738.347 639.536C741.021 635.547 739.537 630.47 740.213 626C740.951 621.12 743.83 617.067 743.945 612C744.156 602.756 733.844 597.659 733.792 589.873C733.767 586.071 739.456 583.523 741.661 580.957C745.482 576.508 747.502 570.801 747.911 565C749.164 547.216 743.179 528.966 743.179 511C743.179 494.117 746.994 477.564 749.675 461C752.171 445.58 752.242 429.283 755.38 414C757.628 403.051 770.681 403.64 772.671 392C774.624 380.568 768.715 368.079 770.13 356C771.528 344.06 779.101 333.254 779.79 321C780.392 310.307 776.118 297.403 780.032 287.005C783.886 276.767 795.065 287.549 800.852 279.772C807.379 270.999 804.649 253.461 808 243z"/>
<path style="fill:#494949; stroke:none;" d="M310.667 99.3333L311.333 99.6667L310.667 99.3333M950 99L951 100L950 99M951.667 100.333L952.333 100.667L951.667 100.333z"/>
<path style="fill:#8e9fc2; stroke:none;" d="M161 104L165 101L161 104z"/>
<path style="fill:#494949; stroke:none;" d="M953 101L953 103L955 103L953 101M314 102L315 103L314 102M800 103L801 104L800 103M955 103L956 104L955 103z"/>
<path style="fill:#8e9fc2; stroke:none;" d="M160 104L161 105L160 104z"/>
<path style="fill:#494949; stroke:none;" d="M792 104L793 105L792 104M956 104L957 105L956 104z"/>
<path style="fill:#8e9fc2; stroke:none;" d="M159 105L160 106L159 105z"/>
<path style="fill:#494949; stroke:none;" d="M957.667 105.333L958.333 105.667L957.667 105.333z"/>
<path style="fill:#8e9fc2; stroke:none;" d="M155 109L159 106L155 109z"/>
<path style="fill:#494949; stroke:none;" d="M959 106L960 107L959 106M960 107L961 108L960 107M804 108L805 109L804 108M961 108L962 109L961 108z"/>
<path style="fill:#8e9fc2; stroke:none;" d="M154 109L155 110L154 109z"/>
<path style="fill:#494949; stroke:none;" d="M962 109L963 110L962 109z"/>
<path style="fill:#8e9fc2; stroke:none;" d="M151 112L154 110L151 112z"/>
<path style="fill:#494949; stroke:none;" d="M963.667 110.333L964.333 110.667L963.667 110.333M965 111L966 112L965 111z"/>
<path style="fill:#8e9fc2; stroke:none;" d="M150 112L149 114L151 114L150 112z"/>
<path style="fill:#494949; stroke:none;" d="M966 112L967 113L966 112M791 113L792 114L791 113M967 113L968 114L967 113z"/>
<path style="fill:#8e9fc2; stroke:none;" d="M148 114L149 115L148 114z"/>
<path style="fill:#494949; stroke:none;" d="M968 114L971 116L968 114z"/>
<path style="fill:#8e9fc2; stroke:none;" d="M147 115L148 116L147 115M143 119L147 116L143 119z"/>
<path style="fill:#494949; stroke:none;" d="M971 116L972 117L971 116M972 117L979 123L972 117z"/>
<path style="fill:#8e9fc2; stroke:none;" d="M142 119L143 120L142 119M137 124L142 120L137 124z"/>
<path style="fill:#494949; stroke:none;" d="M303 122L304 123L303 122M979 123L980 124L979 123z"/>
<path style="fill:#8e9fc2; stroke:none;" d="M136 124L137 125L136 124z"/>
<path style="fill:#494949; stroke:none;" d="M980 124L981 125L980 124z"/>
<path style="fill:#8e9fc2; stroke:none;" d="M135 125L136 126L135 125z"/>
<path style="fill:#494949; stroke:none;" d="M981.667 125.333L982.333 125.667L981.667 125.333z"/>
<path style="fill:#8e9fc2; stroke:none;" d="M133 126L133 128L135 126L133 126z"/>
<path style="fill:#494949; stroke:none;" d="M983.333 126.667L983.667 127.333L983.333 126.667z"/>
<path style="fill:#8e9fc2; stroke:none;" d="M128 132L133 128L128 132z"/>
<path style="fill:#494949; stroke:none;" d="M985 128L985 130L987 130L985 128M987 130L988 131L987 130M988 131L989 132L988 131z"/>
<path style="fill:#8e9fc2; stroke:none;" d="M127 132L126 134L128 134L127 132z"/>
<path style="fill:#494949; stroke:none;" d="M989 132L990 133L989 132M990 133L991 134L990 133z"/>
<path style="fill:#8e9fc2; stroke:none;" d="M125 134L124 136L126 136L125 134z"/>
<path style="fill:#494949; stroke:none;" d="M326.667 134.333L327.333 134.667L326.667 134.333M343 134L344 135L343 134M991 134L1018 161L1060.92 210L1085.66 244L1099 262C1094.79 251.979 1087 242.825 1080.71 234C1065.16 212.196 1047.97 192.047 1030.29 172C1019.42 159.676 1005.7 141.623 991 134z"/>
<path style="fill:#8e9fc2; stroke:none;" d="M122 136L122 138L124 136L122 136z"/>
<path style="fill:#494949; stroke:none;" d="M346 136L347 137L346 136z"/>
<path style="fill:#8e9fc2; stroke:none;" d="M992 136L994 138L994 136L992 136M115 144L122 138L115 144z"/>
<path style="fill:#494949; stroke:none;" d="M270 138L271 139L270 138M764 138L765 139L764 138M810 138L811 139L810 138z"/>
<path style="fill:#8e9fc2; stroke:none;" d="M994 138C1001.47 148.598 1013.4 160.534 1024 168C1019.4 158.139 1003.86 142.599 994 138z"/>
<path style="fill:#494949; stroke:none;" d="M837 140L838 141L837 140M760 142L761 143L760 142M347 143L348 144L347 143z"/>
<path style="fill:#8e9fc2; stroke:none;" d="M114 144L90 170C96.1322 165.68 114.163 151.72 114 144z"/>
<path style="fill:#494949; stroke:none;" d="M331 147L332 148L331 147M837 148L838 149L837 148M288 149L288 150L291 150L288 149M764 150L765 151L764 150M798 154L799 155L798 154M303 158L304 159L303 158z"/>
<path style="fill:#8e9fc2; stroke:none;" d="M1024 168L1026 170L1026 168L1024 168M88 170L88 172L90 170L88 170M1026 170L1027 171L1026 170z"/>
<path style="fill:#494949; stroke:none;" d="M807 171L808 172L807 171z"/>
<path style="fill:#8e9fc2; stroke:none;" d="M1027 171L1028 172L1027 171M87 172L86 174L88 174L87 172M1028 172L1028 174L1030 174L1028 172M85 174L84 176L86 176L85 174M1030.33 174.667L1030.67 175.333L1030.33 174.667M83 176L78 183L83 176M1032.33 176.667L1032.67 177.333L1032.33 176.667z"/>
<path style="fill:#494949; stroke:none;" d="M799 177L800 178L799 177z"/>
<path style="fill:#8e9fc2; stroke:none;" d="M1033 178L1036 181L1033 178M1036 181L1037 182L1036 181M1037 182L1038 183L1037 182M77 183L78 184L77 183M1038 183L1039 184L1038 183M76 184L73 189L76 184M1039 184L1040 185L1039 184M1040 185L1042 188L1040 185M1042 188L1043 189L1042 188M72 189L73 190L72 189M1043 189L1044 190L1043 189M71 190L72 191L71 190z"/>
<path style="fill:#494949; stroke:none;" d="M321.333 190.667L321.667 191.333L321.333 190.667z"/>
<path style="fill:#8e9fc2; stroke:none;" d="M1044 190L1045 191L1044 190M70 191L68 195L70 191z"/>
<path style="fill:#494949; stroke:none;" d="M810 191L811 192L810 191z"/>
<path style="fill:#8e9fc2; stroke:none;" d="M1045 191L1048 195L1045 191M67 195L68 196L67 195M1048 195L1049 196L1048 195M66 196L67 197L66 196z"/>
<path style="fill:#494949; stroke:none;" d="M797 196L798 197L797 196z"/>
<path style="fill:#8e9fc2; stroke:none;" d="M1049 196L1050 197L1049 196M65 197L66 198L65 197M1050 197L1053 201L1050 197M64 198L65 199L64 198z"/>
<path style="fill:#494949; stroke:none;" d="M816 198L817 199L816 198z"/>
<path style="fill:#8e9fc2; stroke:none;" d="M63 199L58 207L63 199z"/>
<path style="fill:#494949; stroke:none;" d="M817 200L818 201L817 200M324 201L325 202L324 201z"/>
<path style="fill:#8e9fc2; stroke:none;" d="M1053 201L1054 202L1053 201M1054 202L1058 207L1054 202z"/>
<path style="fill:#494949; stroke:none;" d="M327 205L328 206L327 205z"/>
<path style="fill:#8e9fc2; stroke:none;" d="M57 207L53 213L57 207M1058 207L1059 208L1058 207M1059 208L1065 216L1059 208M52 213L51 216L52 213M50 216L51 217L50 216M325 216C324.109 221.601 326.219 227.629 323.772 232.985C320.265 240.659 312.312 238.683 307.653 244.228C301.771 251.229 300.634 262.583 297.773 270.946C295.837 276.605 288.455 280.592 290.336 287.772C291.5 292.212 298.586 291 302 291C312.771 291.001 323.282 291.256 334 292.271C337.79 292.63 342.704 292.852 344.778 288.856C347.178 284.229 343.111 272.906 341.862 268C337.409 250.51 334.885 232.871 328 216L325 216M1065 216L1065 218L1067 218L1065 216M49 217L48 220L49 217z"/>
<path style="fill:#fefefe; stroke:none;" d="M326 218C326 225.359 327.474 234.244 320.895 239.351C317.16 242.25 311.076 242.221 308.343 246.278C303.172 253.955 302.909 263.818 299.298 271.957C297.338 276.374 290.384 280.931 291.867 286.682C292.702 289.924 300.379 289.405 303 289.714C312.286 290.81 321.708 289.356 331 290.576C334.214 290.997 339.621 291.979 342.127 289.258C345.095 286.035 342.123 274.94 341.139 271C337.423 256.121 336.448 229.623 326 218z"/>
<path style="fill:#8e9fc2; stroke:none;" d="M1067.33 218.667L1067.67 219.333L1067.33 218.667M47 220L48 221L47 220z"/>
<path style="fill:#494949; stroke:none;" d="M324 220L324 225L325 225L324 220M336 220L337 221L336 220z"/>
<path style="fill:#8e9fc2; stroke:none;" d="M1068 220L1069 221L1068 220M46 221L47 222L46 221M1069 221L1070 222L1069 221M45.3333 222.667L45.6667 223.333L45.3333 222.667z"/>
<path style="fill:#494949; stroke:none;" d="M791 222L792 223L791 222z"/>
<path style="fill:#8e9fc2; stroke:none;" d="M1070 222L1075 229L1070 222z"/>
<path style="fill:#494949; stroke:none;" d="M337 223L338 224L337 223z"/>
<path style="fill:#8e9fc2; stroke:none;" d="M44 224L45 225L44 224M43 225L41 229L43 225z"/>
<path style="fill:#494949; stroke:none;" d="M331 225L332 226L331 225M339 227L340 228L339 227z"/>
<path style="fill:#8e9fc2; stroke:none;" d="M40 229L37 235L38 235L40 229M1075.33 229.667L1075.67 230.333L1075.33 229.667M1076 231L1077 232L1076 231M1077 232L1080 236L1077 232z"/>
<path style="fill:#494949; stroke:none;" d="M291 233L292 234L291 233z"/>
<path style="fill:#8e9fc2; stroke:none;" d="M36 235L37 236L36 235M35 236L34 239L35 236M1080.33 236.667L1080.67 237.333L1080.33 236.667z"/>
<path style="fill:#494949; stroke:none;" d="M321 237L322 238L321 237z"/>
<path style="fill:#8e9fc2; stroke:none;" d="M1081 238L1082 239L1081 238M33 239L32 242L33 239M1082 239L1083 240L1082 239z"/>
<path style="fill:#494949; stroke:none;" d="M335 240L336 241L335 240M829 240L830 241L829 240z"/>
<path style="fill:#8e9fc2; stroke:none;" d="M1083.33 240.667L1083.67 241.333L1083.33 240.667z"/>
<path style="fill:#494949; stroke:none;" d="M344.333 241.667L344.667 242.333L344.333 241.667z"/>
<path style="fill:#8e9fc2; stroke:none;" d="M31 242L32 243L31 242M1084 242L1085 243L1084 242M30.3333 243.667L30.6667 244.333L30.3333 243.667M1085.33 243.667L1085.67 244.333L1085.33 243.667M29 245L30 246L29 245M1086 245L1087 246L1086 245M28.3333 246.667L28.6667 247.333L28.3333 246.667M1087.33 246.667L1087.67 247.333L1087.33 246.667M27 248L23 255L27 248M1088 248L1089 249L1088 248M1089 249L1091 252L1089 249z"/>
<path style="fill:#494949; stroke:none;" d="M286 252L287 253L286 252M304 252L305 253L304 252z"/>
<path style="fill:#8e9fc2; stroke:none;" d="M1091 252L1093 255L1091 252z"/>
<path style="fill:#494949; stroke:none;" d="M338.333 253.667L338.667 254.333L338.333 253.667z"/>
<path style="fill:#8e9fc2; stroke:none;" d="M22 255L21 258L22 255M1093 255L1095 258L1093 255z"/>
<path style="fill:#494949; stroke:none;" d="M339 257L340 258L339 257M816 257L817 258L816 257z"/>
<path style="fill:#8e9fc2; stroke:none;" d="M20 258L16 266L17 266L20 258M1095.33 258.667L1095.67 259.333L1095.33 258.667M1096 260L1097 261L1096 260M1097 261L1098 265L1099 265L1097 261z"/>
<path style="fill:#494949; stroke:none;" d="M837 262L838 263L837 262M283 263L284 264L283 263z"/>
<path style="fill:#8e9fc2; stroke:none;" d="M15.3333 266.667L15.6667 267.333L15.3333 266.667z"/>
<path style="fill:#494949; stroke:none;" d="M341 267L342 268L341 267M353 267L354 268L353 267M783.333 267.667L783.667 268.333L783.333 267.667z"/>
<path style="fill:#8e9fc2; stroke:none;" d="M14 268L15 269L14 268M13 269L11 274L12 274L13 269z"/>
<path style="fill:#494949; stroke:none;" d="M354 269L354 272L355 272L354 269M297 273L298 274L297 273M822 273L823 274L822 273z"/>
<path style="fill:#8e9fc2; stroke:none;" d="M10.3333 274.667L10.6667 275.333L10.3333 274.667z"/>
<path style="fill:#494949; stroke:none;" d="M841 275L842 276L841 275z"/>
<path style="fill:#8e9fc2; stroke:none;" d="M9 276L8 279L9 276M7 279L6 282L7 279M5 282L3 288L4 288L5 282z"/>
<path style="fill:#494949; stroke:none;" d="M778.333 283.667L778.667 284.333L778.333 283.667M780 284L781 285L780 284M356.333 285.667L356.667 286.333L356.333 285.667z"/>
<path style="fill:#8e9fc2; stroke:none;" d="M2 288L1 291L2 288z"/>
<path style="fill:#494949; stroke:none;" d="M281 288L282 289L281 288M779.333 288.667L779.667 289.333L779.333 288.667z"/>
<path style="fill:#8e9fc2; stroke:none;" d="M0.333333 291.667L0.666667 292.333L0.333333 291.667z"/>
<path style="fill:#494949; stroke:none;" d="M776.333 291.667L776.667 292.333L776.333 291.667M339 301L340 302L339 301M828 303L829 304L828 303M844 308L844 312L845 312L844 308M831.333 324.667L831.667 325.333L831.333 324.667M351 327L351 331L352 331L351 327M361 346L362 347L361 346M849 346L850 347L849 346M772 348L773 349L772 348M766 350L767 351L766 350M276 352L277 353L276 352M852 364L853 365L852 364M289 369L290 370L289 369M355 379L356 380L355 379M863 379L864 380L863 379M356 380L357 381L356 380M772.333 383.667L772.667 384.333L772.333 383.667M873 383L874 384L873 383M365.667 384.333L366.333 384.667L365.667 384.333M271 385L272 386L271 385M258 389L259 390L258 389M261 389L262 390L261 389M852 390L853 391L852 390M250 392L251 393L250 392M856 392L857 393L856 392M249 393L250 394L249 393M772 393L773 394L772 393M862 394L863 395L862 394M246 395L247 396L246 395M769 400L770 401L769 400M276 401L277 402L276 401M768 401L769 402L768 401M767 402L768 403L767 402M241.333 403.667L241.667 404.333L241.333 403.667M750 403L751 404L750 403M257 405L258 406L257 405M256 406L257 407L256 406M748.333 407.667L748.667 408.333L748.333 407.667M536 414L537 415L536 414M747 414L748 415L747 414M553 419L554 420L553 419M238 420L239 421L238 420M554 420L555 421L554 420M516 421L517 422L516 421M876 423L877 424L876 423M561 426L562 427L561 426M248 432L249 433L248 432M878 435L879 436L878 435M743.333 436.667L743.667 437.333L743.333 436.667M752 438L752 441L753 441L752 438M548 441L549 442L548 441M524 445L525 446L524 445z"/>
<path style="fill:#8e9fc2; stroke:none;" d="M810 452.468C799.763 454.452 792.68 464.161 790.85 474C787.383 492.631 786.217 513.025 784.911 532C784.368 539.881 782.67 547.914 787.482 554.96C792.656 562.535 799.928 562.647 808 564.389C812.512 565.363 816.211 567.776 821 566.427C828.61 564.283 833.472 555.286 829.682 548.004C824.867 538.753 812.524 542.964 808.024 535.772C805.127 531.141 806 523.217 806 518C806 503.606 803.516 485.953 806.394 472C807.969 464.369 813.991 461.743 821 460.921C823.487 460.63 828.56 459.783 827.94 456.159C826.924 450.226 813.982 451.697 810 452.468z"/>
<path style="fill:#2c4a94; stroke:none;" d="M827 457C817.612 447.414 799.647 456.982 794.825 467.004C792.066 472.738 792.988 479.807 791.803 486C789.146 499.89 788.523 513.977 786.845 528C785.964 535.365 784.338 545.002 787.558 551.995C792.469 562.663 824.13 571.991 828.427 556.999C833.598 538.962 811.322 546.067 806.028 536.867C803.425 532.344 805.024 524.063 804.999 519C804.941 506.977 805 495.041 805 483C805 477.251 803.828 470.016 807.653 465.188C812.402 459.194 820.812 460.43 827 457z"/>
<path style="fill:#494949; stroke:none;" d="M558 456L559 457L558 456M804 456L805 457L804 456M231 457L232 458L231 457M826 457L827 458L826 457M878 458L879 459L878 458M475 459L476 460L475 459M458 462L459 463L458 462M797 462L798 463L797 462M563 463L564 464L563 463M564 464L565 465L564 464M565 465L566 466L565 465M738 466L739 467L738 466M451 467L452 468L451 467M509 467L510 468L509 467M507 469L508 470L507 469M569 469L570 470L569 469M244 471L245 472L244 471M747 471L747 474L748 474L747 471M573 472L574 473L573 472M446 473L447 474L446 473M497 475L498 476L497 475M889 475L890 476L889 475M495 476L496 477L495 476M874 476L874 479L875 479L874 476M493 477L494 478L493 477M582 477L583 478L582 477M443 479L444 480L443 479M487 479L488 480L487 479M591 480L592 481L591 480M746.333 480.667L746.667 481.333L746.333 480.667M472 481L473 482L472 481M469 482L470 483L469 482z"/>
<path style="fill:#8e9fc2; stroke:none;" d="M289 558C289 540.222 285.069 516.984 290.684 500C292.86 493.419 299.653 490.358 302 484C292.638 481.239 281.809 487.423 277.761 496.17C269.999 512.94 268.865 534.838 266.833 553C265.753 562.657 262.345 572.027 270.105 579.942C277.299 587.281 301.294 590.435 308.566 581.811C314.286 575.028 310.797 562.438 302.91 559.009C298.773 557.21 293.41 558 289 558z"/>
<path style="fill:#494949; stroke:none;" d="M735 483L736 484L735 483z"/>
<path style="fill:#2c4a94; stroke:none;" d="M299 484C271.443 486.82 272.112 527.294 268.754 548C267.446 556.063 264.495 569.831 269.564 576.96C276.331 586.477 304.481 590.248 309.397 576.999C316.655 557.437 290.379 565.276 287.769 554.956C286.141 548.524 288.028 541.529 287.999 535C287.947 523.299 285.352 510.469 289.059 499C291.049 492.84 297.26 490.071 299 484z"/>
<path style="fill:#494949; stroke:none;" d="M299.333 484.667L299.667 485.333L299.333 484.667M734.333 485.667L734.667 486.333L734.333 485.667M290 486L291 487L290 486M641 486L642 487L641 486M243.333 487.667L243.667 488.333L243.333 487.667M744 491L745 492L744 491M884.333 493.667L884.667 494.333L884.333 493.667M804 494L804 500L805 500L804 494M871.333 494.667L871.667 495.333L871.333 494.667M370 495L371 496L370 495M289 497L290 498L289 497M278 499L279 500L278 499M731 502L732 503L731 502M881 503L882 504L881 503M276 505L277 506L276 505M804 508L804 512L805 512L804 508M434 519L435 520L434 519M226.333 520.667L226.667 521.333L226.333 520.667M869 521L870 522L869 521M881 525L882 526L881 525M271.333 526.667L271.667 527.333L271.333 526.667M415 527L416 528L415 527M786 528L786 531L787 531L786 528M871 528L872 529L871 528M410 532L411 533L410 532M392 536L393 537L392 536M406 538L407 539L406 538M658 539L659 540L658 539M450 540L451 541L450 540M665 541L666 542L665 541M817 541L818 542L817 541M668 542L669 543L668 542M226 544L226 548L227 548L226 544M432 544L433 545L432 544M879 544L880 545L879 544M430 545L431 546L430 545M746.333 545.667L746.667 546.333L746.333 545.667M679 546L680 547L679 546M226 549L227 550L226 549M268 549L269 550L268 549M402.333 549.667L402.667 550.333L402.333 549.667M637 549L638 550L637 549M639 550L640 551L639 550M734 551L735 552L734 551M829 551L829 556L830 556L829 551M644 552L645 553L644 552M689 552L690 553L689 552M242 554L243 555L242 554M828 557L829 558L828 557M793 558L794 559L793 558M389 559L390 560L389 559M694 559L695 560L694 559M794 559L795 560L794 559M223 561L224 562L223 561M388 561L389 562L388 561M673 562L674 563L673 562M896 563L897 564L896 563M813 564L814 565L813 564M399.333 565.667L399.667 566.333L399.333 565.667M424 565L424 568L425 568L424 565M266 567L266 570L267 570L266 567M236 572L237 573L236 572M267 572L268 573L267 572M386 572L387 573L386 572M889 572L890 573L889 572M679 573L679 579L680 579L679 573M696 573L697 574L696 573M190 574L191 575L190 574M729 574L730 575L729 574M728 575L729 576L728 575M900 575L901 576L900 575M233 576L234 577L233 576M232 577L233 578L232 577M186 578L187 579L186 578M364 578L365 579L364 578M903 578L904 579L903 578M904 579L905 580L904 579M741 581L742 582L741 581M225 582L226 583L225 582M719 582L720 583L719 582M718 585L718 590L719 590L718 585M186 587L187 588L186 587M926 589L927 590L926 589M927 590L928 591L927 590M190 592L191 593L190 592M719 592L720 593L719 592M678 595L678 598L679 598L678 595M195 597L196 598L195 597M221 598L222 599L221 598z"/>
<path style="fill:#8e9fc2; stroke:none;" d="M578 678C580.281 665.713 579 652.469 579 640C579 631.544 581.1 617.414 576.397 610.001C566.357 594.177 538.895 595.312 523 599.795C517.162 601.441 511.672 601.252 507.264 606.105C496.028 618.475 502.994 644.83 503 660C503.004 670.309 497.764 698.3 512 700.703C526.223 703.104 524.121 679.24 522.255 671C519.521 658.93 517.917 644.396 518.005 632C518.037 627.363 518.185 620.879 521.434 617.228C527.83 610.041 545.227 610.374 554 611.093C568.999 612.324 566.875 623.874 568.129 635C569.098 643.604 571.436 652.317 572.576 661C573.328 666.729 571.265 675.786 578 678z"/>
<path style="fill:#494949; stroke:none;" d="M530.667 599.333L531.333 599.667L530.667 599.333z"/>
<path style="fill:#2c4a94; stroke:none;" d="M576 672C578.903 665.081 577 654.48 577 647C577 636.749 580.138 620.138 574.911 611.001C564.544 592.882 529.118 596.945 513.001 603.854C504.327 607.572 504.001 616.884 504 625C503.999 642.697 505 660.367 505 678C505 684.61 503.024 700.389 513.995 699.367C523.666 698.467 521.354 684.433 520.911 678C520.117 666.47 519.094 654.421 517.576 643C516.615 635.77 514.956 625.021 518.228 618.185C520.568 613.298 526.276 612.54 531 611.374C541.788 608.711 560.627 605.215 567.442 617.04C571.506 624.092 569.13 632.49 571.344 640C574.293 650.001 574.604 661.63 576 672z"/>
<path style="fill:#494949; stroke:none;" d="M558 599L559 600L558 599M678 600L679 601L678 600M563 601L564 602L563 601M725 601L726 602L725 601M421 602L422 603L421 602M726 603L727 604L726 603M727 604L728 605L727 604M371 606L372 607L371 606M224 607L225 608L224 607M419 610L420 611L419 610M744 610L744 614L745 614L744 610M526 612L527 613L526 612M576 614L577 615L576 614M743 616L744 617L743 616M568 618L569 619L568 618z"/>
<path style="fill:#8e9fc2; stroke:none;" d="M816.941 618.573C807.61 618.329 795.848 620.275 789.789 628.093C782.123 637.986 785.924 651.506 784.83 663C782.99 682.333 772.908 725.1 803 725.985C807.537 726.118 812.492 726.457 816.996 725.867C824.772 724.848 830.233 715.259 827.062 708.004C822.814 698.288 810.265 703.774 806.514 695.941C802.665 687.904 804.515 676.622 803.911 668C803.461 661.584 801.173 655.458 801.015 649C800.906 644.588 800.19 639.022 802.434 635.04C806.345 628.1 814.646 628.524 819.377 623.24C821.545 620.818 819.718 618.645 816.941 618.573z"/>
<path style="fill:#494949; stroke:none;" d="M517 619L518 620L517 619M678.333 619.667L678.667 620.333L678.333 619.667M206 620L207 621L206 620M815 620L815 621L819 621L815 620M410 621L411 622L410 621z"/>
<path style="fill:#2c4a94; stroke:none;" d="M819 622C815.868 620.686 812.391 620.925 809 621.015C778.173 621.829 787.832 659.973 785.829 680C784.678 691.511 780.963 705.133 786.985 715.957C793.503 727.671 820.6 729.708 825.987 715.999C831.955 700.81 809.579 705.269 805.419 697.867C801.205 690.368 803.323 680.192 802.961 672C802.615 664.171 800.091 656.931 799.996 649C799.942 644.442 798.198 639.308 800.319 635.015C803.937 627.69 812.391 625.483 819 622z"/>
<path style="fill:#494949; stroke:none;" d="M726 622L727 623L726 622M800 622L801 623L800 622z"/>
<path style="fill:#8e9fc2; stroke:none;" d="M303 732C303.672 725.534 301.053 719.414 300.285 713C299.268 704.497 300 695.557 300 687C300 675.334 300.06 663.666 299.999 652C299.855 624.359 271.443 614.488 251.289 632.67C242.051 641.004 242.285 654.532 241.985 666C241.57 681.909 240 697.862 240 714C240 723.962 239.235 737.099 252 739.655C259.718 741.201 270.698 737.895 276.999 733.481C279.192 731.946 283.515 729.249 283.079 726.065C282.157 719.339 269.993 719.366 267.028 713.941C262.787 706.182 265 691.619 265 683C265 673.626 262.474 659.934 265.703 651.09C267.376 646.508 273.815 641.97 278.606 645.029C283.949 648.438 283.186 658.534 284.08 664C286.732 680.205 285.07 700.186 291.475 715.286C293.903 721.008 296.143 730.86 303 732z"/>
<path style="fill:#494949; stroke:none;" d="M799 623L800 624L799 623M503 624L503 636L504 636L503 624M390 625L391 626L390 625M810 625L811 626L810 625z"/>
<path style="fill:#2c4a94; stroke:none;" d="M282 728C278.114 720.399 266.938 720.534 264.42 711.999C259.927 696.776 260.381 668.626 263.228 653C264.466 646.21 274.34 638.45 280.581 644.434C286.261 649.881 285.444 660.853 286.171 668C287.934 685.358 286.393 715.779 301 728C299.704 712.132 298 697.112 298 681C298 671.002 298.119 660.997 297.996 651C297.903 643.424 296.075 634.304 289.981 629.279C278.991 620.214 257.467 627.068 249.483 637.015C244.65 643.035 244.592 651.662 243.715 659C241.628 676.445 241 694.423 241 712C241 720.039 239.548 730.541 247.329 735.772C258.43 743.234 272.696 733.3 282 728z"/>
<path style="fill:#494949; stroke:none;" d="M285 626L286 627L285 626M793 626L794 627L793 626M792 627L793 628L792 627M908 629L908 632L909 632L908 629M203.333 632.667L203.667 633.333L203.333 632.667M800 633L801 634L800 633M908 633L909 634L908 633M251 634L252 635L251 634M295 636L296 637L295 636M224 637L225 638L224 637M248 638L249 639L248 638M571.333 640.667L571.667 641.333L571.333 640.667M737 640L738 641L737 640M296 641L297 642L296 641M736 641L737 642L736 641M799 642L800 643L799 642M297 644L298 645L297 644M691 644L692 645L691 644M696 647L697 648L696 647M706 649L707 650L706 649M714 649L715 650L714 649M917 653L918 654L917 653M243 658L243 661L244 661L243 658M574 664L575 665L574 664M575 668L576 676L577 676L575 668M221 669L222 670L221 669M286.333 670.667L286.667 671.333L286.333 670.667M906 676L906 684L907 684L906 676M521 683L521 688L522 688L521 683M906 685L907 686L906 685M521 690L522 691L521 690M288.333 693.667L288.667 694.333L288.333 693.667M505 693L506 694L505 693M804 695L805 696L804 695M511 699L512 700L511 699M515 699L516 700L515 699M818.667 702.333L819.333 702.667L818.667 702.333M263 704L263 707L264 707L263 704M822 704L823 705L822 704M824 706L825 707L824 706M199 711L199 715L200 715L199 711M292 713L293 714L292 713M924 714L925 715L924 714M786 715L787 716L786 715M903 715L903 718L904 718L903 715M788 718L789 719L788 718M271 719L272 720L271 719M273 720L274 721L273 720M792 721L793 722L792 721M280 724L281 725L280 724M281 725L282 726L281 725M301 726L299 727L302 730L301 726M242 729L243 730L242 729M276 731L277 732L276 731M248 736L249 737L248 736M250 737L251 738L250 737z"/>
<path style="fill:#8e9fc2; stroke:none;" d="M345 763L345 764C336.902 770.851 339.862 785.204 338.576 795C334.602 825.264 330.88 852.306 336.755 883C338.062 889.824 339.608 913.878 346 916C350.915 889.527 343.535 860.033 346.104 833C347.055 823 353.427 812.288 355.486 802C357.093 793.971 356.64 785.161 357.791 777C358.211 774.018 357.399 769.976 360.318 768.028C364.565 765.193 374.066 767 379 767L428 767C440.745 766.999 453.304 764.326 466 764.015C498.29 763.223 530.733 765.374 563 763.961C574.748 763.446 586.217 761 598 761L655 761C661.589 761 671.825 763.134 676 757C668.934 754.911 661.282 756.523 654 755.83C630.391 753.583 606.682 754.998 583 753.961C534.462 751.835 485.663 750.326 437 747.96C430.851 747.661 425.233 745.078 419 745.004C396.47 744.734 373.397 742.565 351 745.109C342.092 746.121 339.591 756.78 345 763z"/>
<path style="fill:#494949; stroke:none;" d="M349.667 746.333L350.333 746.667L349.667 746.333z"/>
<path style="fill:#2c4a94; stroke:none;" d="M344 912L345 912C345 885.667 341.217 856.146 345.213 830C346.467 821.795 351.639 814.548 352.869 806C354.21 796.679 354.325 787.344 355.568 778C356.01 774.671 354.846 770.161 357.473 767.564C362.077 763.011 373.126 765 379 765C397.649 765 416.358 765.442 435 764.985C445.672 764.724 456.327 762.507 467 762.039C496.273 760.757 525.706 762.703 555 761.985C589.037 761.151 622.825 759 657 759C651.747 755.02 642.352 757.239 636 756.961C619.336 756.231 602.726 756.001 586 756C572.874 755.999 560.053 752.334 547 752.015C504.139 750.964 460.476 751.794 418 746.714C400.958 744.676 383.164 746 366 746C360.021 746 350.941 744.358 346.434 749.279C342.038 754.078 346.047 758.77 345.003 764C344.421 766.917 342.006 769.078 341.314 772C339.739 778.653 341.477 786.2 340.83 793C338.691 815.485 334.036 836.088 335.039 859C335.832 877.096 341.726 894.102 344 912z"/>
<path style="fill:#494949; stroke:none;" d="M416.667 746.333L417.333 746.667L416.667 746.333M347 747L348 748L347 747M426 747L427 748L426 747M346 748L347 749L346 748M483 749L484 750L483 749z"/>
<path style="fill:#8e9fc2; stroke:none;" d="M736 939C742.307 935.522 742.963 910.485 742.999 903C743.1 882.109 737.931 861.851 737.455 841C737.092 825.09 739 808.993 739 793L739 763C738.998 758.584 739.467 753.72 734.941 751.318C728.707 748.008 722.809 752.845 721.394 759C718.852 770.061 723 782.756 723 794C723 810.008 721.277 827.11 723.184 843C725.52 862.457 732.68 881.587 735.203 901C736.855 913.712 732.213 926.193 736 939z"/>
<path style="fill:#494949; stroke:none;" d="M344 751L345 752L344 751M504 751L505 752L504 751M506 751L506 752L516 752L506 751M727 752L728 753L727 752z"/>
<path style="fill:#2c4a94; stroke:none;" d="M736 932L738 932C738.002 917.54 741.602 903.658 740.961 889C740.256 872.918 736.319 857.045 735.184 841C734.096 825.608 735.898 806.392 737.714 791C738.851 781.372 739.04 769.612 737.71 760.004C737.061 755.317 734.51 751.085 729.043 752.452C724.237 753.654 723.143 758.722 723.015 763C722.697 773.684 723.983 784.298 724 795C724.025 810.753 722.741 829.486 725.326 845C728.539 864.288 735.44 883.575 737.532 903C738.483 911.832 736 922.791 736 932z"/>
<path style="fill:#494949; stroke:none;" d="M568 754L569 755L568 754M343.333 755.667L343.667 756.333L343.333 755.667M631 756L631 757L635 757L631 756M737 756L737 759L738 759L737 756M656 757L656 758L660 759L660 758L656 757M929 757L930 758L929 757M650 759L651 760L650 759M652 759L653 760L652 759M583 760L584 761L583 760M440 764L440 765L443 765L440 764M903 764L904 765L903 764M361 765L361 766L367 766L361 765M413 765L414 766L413 765M946 766L947 767L946 766M905 769L906 770L905 769M171 771L172 772L171 771M168 772L169 773L168 772M165 775L166 776L165 775M960 778L961 779L960 778z"/>
<path style="fill:#8e9fc2; stroke:none;" d="M814 793C812.36 787.598 806.905 787.274 802 785.75C790.361 782.134 773.596 780.339 768.474 795C761.55 814.818 767.586 836.247 772.346 856C774.105 863.296 775.338 873.214 781.329 878.427C787.014 883.374 797.909 883.458 805 884.171C814.503 885.125 827.733 891.395 835.606 882.786C841.223 876.644 839.127 868.181 832.985 863.419C823.071 855.733 809.092 863.229 799.133 857.682C794.579 855.146 793.846 848.422 792.036 844C787.458 832.821 772.669 803.365 788.015 795.457C795.491 791.604 805.874 794.935 814 793z"/>
<path style="fill:#494949; stroke:none;" d="M354 784L355 785L354 784z"/>
<path style="fill:#2c4a94; stroke:none;" d="M809 790C804.252 787.957 799.038 786.419 794 785.236C757.502 776.667 767.534 828.58 772.258 848C774.398 856.8 774.811 872.459 783.185 877.911C790.816 882.878 802.417 881.922 811 883.325C816.055 884.151 820.75 886.463 826 885.807C830.455 885.251 835.089 882.427 836.486 877.961C843.555 855.367 808.376 864.556 799.054 859.543C793.913 856.778 792.359 850.073 790.479 845C786.174 833.379 773.816 809.767 782.573 798.019C789.513 788.708 800.897 795.536 809 790z"/>
<path style="fill:#494949; stroke:none;" d="M776 787L777 788L776 787M926 788L927 789L926 788M808 789L809 790L808 789M809 790L807 791L807 792L809 790M771 792L772 793L771 792M969.333 799.667L969.667 800.333L969.333 799.667z"/>
<path style="fill:#8e9fc2; stroke:none;" d="M249 871C246.756 853.24 243.632 833.106 244.943 815.184C245.32 810.029 257.045 807.914 254.824 803.411C251.015 795.688 235.916 803.229 233.09 808.019C226.696 818.85 229.83 836.86 226.715 849C225.347 854.329 221.451 861.47 222.779 867C226.392 882.053 247.502 884.951 260 887.662C266.871 889.152 272.955 891.287 278.671 885.66C286.229 878.217 283.204 864.195 272 862.572C263.196 861.296 256.367 867.516 249 871z"/>
<path style="fill:#2c4a94; stroke:none;" d="M253 806C249.372 799.421 239.697 802.149 235.514 807.213C230.943 812.746 231.133 828.763 230.181 836C228.737 846.971 220.636 863.365 227.905 872.895C235.314 882.609 273.391 895.839 279.772 880.985C282.339 875.008 280.578 867.064 273.996 864.603C268.048 862.38 262.052 865.502 257 868.329C254.784 869.57 251.23 872.551 248.742 870.339C245.51 867.465 246.307 857.11 245.925 853C244.564 838.363 236.192 812.68 253 806z"/>
<path style="fill:#494949; stroke:none;" d="M969 802L970 803L969 802M252 803L253 806L254 806L254 803L252 803M938 805L939 806L938 805M766 807L767 808L766 807M233 810L234 811L233 810M766 816L767 817L766 816M335 822L335 825L336 825L335 822z"/>
<path style="fill:#8e9fc2; stroke:none;" d="M520 827.443C478.441 832.443 486 883.813 486 914C486 927.165 483.847 951.98 504 948.852C516.085 946.976 515.342 931.957 514.286 923C512.302 906.19 511 888.938 511 872C511 863.623 509.926 856.246 517.015 850.34C522.624 845.669 546.811 841.682 552.076 848.318C558.032 855.824 558.869 874.607 560.054 884C560.429 886.97 565.447 906.728 568.455 904.824C570.637 903.443 569.996 899.148 570 897L570 873C570 861.891 572.955 844.821 565.856 835.278C557.537 824.095 531.947 826.006 520 827.443z"/>
<path style="fill:#2c4a94; stroke:none;" d="M566 901L568 901L568 860C568 853.202 569.004 845.364 566.03 839.019C563.756 834.167 556.819 831.676 552 829.969C538.747 825.275 512.069 827.302 501.093 836.415C480.905 853.177 488 892.99 488 916C488 924.268 485.814 936.846 491.652 943.66C498.432 951.573 510.031 947.383 512.316 938C518.641 912.018 501.121 881.689 510.603 856C515.242 843.434 529.195 844 540 844C544.109 844 549.389 843.135 552.581 846.318C558.142 851.863 557.311 860.98 558.185 868C559.574 879.157 564.89 889.859 566 901z"/>
<path style="fill:#494949; stroke:none;" d="M551 829L552 830L551 829M784.333 829.667L784.667 830.333L784.333 829.667M231 830L232 831L231 830M510 831L511 832L510 831M939 832L939 836L940 836L939 832M973 832L974 833L973 832M563 834L564 835L563 834M564 835L565 836L564 835M974.333 837.667L974.667 838.333L974.333 837.667M496 841L497 842L496 841M495 843L496 844L495 843M567 843L568 844L567 843M524.667 844.333L525.333 844.667L524.667 844.333M493 846L494 847L493 846M517 847L518 848L517 847M185 849L186 850L185 849M726 849L727 850L726 849M736 851L737 852L736 851M823 861L823 862L826 862L823 861M224 862L225 863L224 862M976 862L977 863L976 862M509 865L509 880L510 880L509 865M260 866L261 867L260 866M224 867L225 868L224 867M258 867L259 868L258 867M977 868L978 869L977 868M184 869L185 870L184 869M226 870L227 871L226 870M837 872L837 876L838 876L837 872M739 875L740 876L739 875M233 877L234 878L233 877M731 877L732 878L731 877M792 880L793 881L792 880M509 882L510 883L509 882M799 882L800 883L799 882M833 882L834 883L833 882M338 883L339 884L338 883M815 884L816 885L815 884M979 889L980 890L979 889M344 890L344 894L345 894L344 890M563 890L564 891L563 890M181 897L182 898L181 897M344 897L344 900L345 900L344 897M941.333 897.667L941.667 898.333L941.333 897.667M568 898L568 901L569 901L568 898M181.333 899.667L181.667 900.333L181.333 899.667M566 901L566 904L568 904L568 901L566 901M156 904L157 905L156 904M343 908L344 915L345 915L343 908M981 910L982 911L981 910M512 917L512 920L513 920L512 917z"/>
<path style="fill:#8e9fc2; stroke:none;" d="M0 919L8 932L0 919z"/>
<path style="fill:#494949; stroke:none;" d="M0 921C10.2308 950.948 36.2748 980.518 55.7145 1005C62.4046 1013.43 70.2092 1027.23 80 1032L35.8611 976L0 921M735 921L735 925L736 925L735 921z"/>
<path style="fill:#010101; stroke:none;" d="M0 923L0 1099L147 1099L121 1074.83L75.4105 1027.96L25.5154 963L0 923z"/>
<path style="fill:#494949; stroke:none;" d="M157 923L158 924L157 923M162 928L163 929L162 928M172 928L173 929L172 928M171 929L172 930L171 929M167.667 930.333L168.333 930.667L167.667 930.333M736 932L736 937L738 937L738 932L736 932z"/>
<path style="fill:#8e9fc2; stroke:none;" d="M8 934L9 935L8 934M9 935L10 936L9 935M10.3333 936.667L10.6667 937.333L10.3333 936.667z"/>
<path style="fill:#494949; stroke:none;" d="M488 936L489 937L488 936M943 936L943 939L944 939L943 936M512 937L512 940L513 940L512 937z"/>
<path style="fill:#8e9fc2; stroke:none;" d="M11 938L13 941L11 938z"/>
<path style="fill:#494949; stroke:none;" d="M984 938L985 939L984 938z"/>
<path style="fill:#8e9fc2; stroke:none;" d="M13.3333 941.667L13.6667 942.333L13.3333 941.667z"/>
<path style="fill:#494949; stroke:none;" d="M511 941L512 942L511 941z"/>
<path style="fill:#8e9fc2; stroke:none;" d="M14 943L15 944L14 943M15.3333 944.667L15.6667 945.333L15.3333 944.667z"/>
<path style="fill:#494949; stroke:none;" d="M493 945L494 946L493 945z"/>
<path style="fill:#8e9fc2; stroke:none;" d="M16 946L18 949L16 946z"/>
<path style="fill:#494949; stroke:none;" d="M496.667 947.333L497.333 947.667L496.667 947.333z"/>
<path style="fill:#8e9fc2; stroke:none;" d="M1098 947L1085 968C1089.48 964.299 1099.27 952.991 1098 947M18 949L20 952L18 949z"/>
<path style="fill:#494949; stroke:none;" d="M1098 950L1048 1018C1064 1006.49 1076.18 984.605 1087.14 968.424C1090.59 963.325 1097.8 956.256 1098 950z"/>
<path style="fill:#010101; stroke:none;" d="M1098 951C1076.58 989.435 1044.94 1025.06 1014 1056C999.83 1070.17 981.083 1083.15 969 1099L1099 1099L1099 995C1099 982.532 1102.81 962.456 1098 951z"/>
<path style="fill:#8e9fc2; stroke:none;" d="M20.3333 952.667L20.6667 953.333L20.3333 952.667M21 954L23 957L21 954M23 957L25 962L26 962L23 957M26 962L27 963L26 962M27 963L28 964L27 963M28.3333 964.667L28.6667 965.333L28.3333 964.667M29 966L30 967L29 966M30.3333 967.667L30.6667 968.333L30.3333 967.667M31 969L32 970L31 969M1084 969L1085 970L1084 969M32 970L34 973L32 970M1083 970L1084 971L1083 970M1082.33 971.667L1082.67 972.333L1082.33 971.667M34 973L35 974L34 973M1081 973L1082 974L1081 973M35.3333 974.667L35.6667 975.333L35.3333 974.667M1080.33 974.667L1080.67 975.333L1080.33 974.667M36 976L39 980L36 976M1078 976L1078 978L1080 976L1078 976M1077 979L1078 980L1077 979M39 980L40 981L39 980M1076 980L1077 981L1076 980M40.3333 981.667L40.6667 982.333L40.3333 981.667M1075 981L1074 984L1075 981M41 983L42 984L41 983z"/>
<path style="fill:#494949; stroke:none;" d="M984 983L985 984L984 983z"/>
<path style="fill:#8e9fc2; stroke:none;" d="M42 984L45 988L42 984M1073 984L1072 987L1073 984M1071 987L1072 988L1071 987M45.3333 988.667L45.6667 989.333L45.3333 988.667M1070.33 988.667L1070.67 989.333L1070.33 988.667M46 990L48 992L48 990L46 990M1068 990L1068 992L1070 990L1068 990M48 992L50 995L48 992M1067 992L1065 996L1067 992z"/>
<path style="fill:#494949; stroke:none;" d="M1019.33 994.667L1019.67 995.333L1019.33 994.667z"/>
<path style="fill:#8e9fc2; stroke:none;" d="M50 995L51 996L50 995M51 996L52 997L51 996M630 998C633.318 1008.5 641.264 994.06 630 998M1064 996L1065 997L1064 996M52 997L54 1000L52 997M1063 997L1064 998L1063 997z"/>
<path style="fill:#fefefe; stroke:none;" d="M631 1000L636 1000L631 1000z"/>
<path style="fill:#8e9fc2; stroke:none;" d="M1062.33 998.667L1062.67 999.333L1062.33 998.667M54 1000L56 1003L54 1000M1061 1000L1062 1001L1061 1000M1060 1001L1061 1002L1060 1001M1059 1002L1058 1005L1059 1002M56 1003L58 1005L58 1003L56 1003M58 1005L61 1009L58 1005M1057 1005L1053 1011L1057 1005M61 1009L62 1010L61 1009M62 1010L64 1013L62 1010M1052.33 1011.67L1052.67 1012.33L1052.33 1011.67M64 1013L66 1015L66 1013L64 1013M1050 1013L1050 1015L1052 1013L1050 1013M66 1015L67 1016L66 1015z"/>
<path style="fill:#494949; stroke:none;" d="M112.333 1015.67L112.667 1016.33L112.333 1015.67z"/>
<path style="fill:#8e9fc2; stroke:none;" d="M1049 1015L1050 1016L1049 1015M67 1016L68 1017L67 1016M1048 1016L1049 1017L1048 1016M68 1017L71 1021L68 1017z"/>
<path style="fill:#494949; stroke:none;" d="M114 1017L115 1018L114 1017M1003 1017L1004 1018L1003 1017z"/>
<path style="fill:#8e9fc2; stroke:none;" d="M1047 1017L993.089 1073.82L966 1099C989.796 1084.12 1010.36 1059.99 1029.1 1039.46C1033.62 1034.52 1047.68 1023.79 1047 1017z"/>
<path style="fill:#494949; stroke:none;" d="M1046 1019L1046 1021L1048 1019L1046 1019z"/>
<path style="fill:#8e9fc2; stroke:none;" d="M71 1021L72 1022L71 1021z"/>
<path style="fill:#494949; stroke:none;" d="M1045 1021L1041 1027L1045 1021z"/>
<path style="fill:#8e9fc2; stroke:none;" d="M72 1022L73 1023L72 1022M73 1023L74 1024L73 1023M117 1024C122.764 1035.43 136.252 1022.52 122.025 1023.04C120.192 1023.11 118.743 1023.48 117 1024M74 1024L75 1025L74 1024z"/>
<path style="fill:#494949; stroke:none;" d="M119 1024C121.062 1027.27 125.079 1029.32 128 1026L121 1026L124 1025L119 1024z"/>
<path style="fill:#2c4a94; stroke:none;" d="M121 1026L128 1026L121 1026z"/>
<path style="fill:#8e9fc2; stroke:none;" d="M75.3333 1025.67L75.6667 1026.33L75.3333 1025.67z"/>
<path style="fill:#494949; stroke:none;" d="M816 1026L816 1027L820 1027L816 1026z"/>
<path style="fill:#8e9fc2; stroke:none;" d="M76 1027L77 1028L76 1027z"/>
<path style="fill:#494949; stroke:none;" d="M1040 1027L1041 1028L1040 1027z"/>
<path style="fill:#8e9fc2; stroke:none;" d="M77 1028L78 1029L77 1028z"/>
<path style="fill:#494949; stroke:none;" d="M1039 1028L1040 1029L1039 1028z"/>
<path style="fill:#8e9fc2; stroke:none;" d="M78 1029L79 1030L78 1029M192 1031C194.91 1035.04 199.475 1033.75 204 1034.29C215.106 1035.6 225.811 1036 237 1036C240.011 1036 248.821 1037.51 250.11 1033.74C251.707 1029.07 239.615 1029.26 237 1029.09C223.368 1028.18 205.022 1026.59 192 1031z"/>
<path style="fill:#494949; stroke:none;" d="M779.667 1029.33L780.333 1029.67L779.667 1029.33M1038 1029L1036 1032L1038 1029z"/>
<path style="fill:#8e9fc2; stroke:none;" d="M79 1030L80 1031L79 1030M80 1031C86.1442 1042.82 98.6944 1052.69 108 1062C113.942 1067.94 120.274 1075.45 128 1079L128 1078L80 1031z"/>
<path style="fill:#494949; stroke:none;" d="M194 1033L198 1032L194 1033z"/>
<path style="fill:#2c4a94; stroke:none;" d="M197 1032L197 1033L233 1034L248 1033L233 1031L197 1032z"/>
<path style="fill:#494949; stroke:none;" d="M205.667 1031.33L206.333 1031.67L205.667 1031.33M245 1031L245 1032L248 1034C248.951 1031.49 247.348 1031.29 245 1031M545 1031L545 1032L549 1032L545 1031M616 1031L616 1032L625 1032L616 1031M628 1031L629 1032L628 1031M630 1031L630 1032L639 1032L630 1031M664 1031L664 1032L673 1032L664 1031M292 1032L292 1033L297 1033L292 1032M298 1032L299 1033L298 1032M1035.33 1032.67L1035.67 1033.33L1035.33 1032.67M80 1033L83 1036L80 1033M211 1033L212 1034L211 1033M276 1034L276 1035L283 1035L276 1034M245 1034L246 1035L245 1034M1033 1034L1033 1036L1035 1034L1033 1034M296 1035L296 1036L300 1036L296 1035M987 1035L988 1036L987 1035M83 1036L84 1037L83 1036M986 1036L987 1037L986 1036M1031 1036L1031 1038L1033 1036L1031 1036M84 1037L85 1038L84 1037M85 1038L86 1039L85 1038M1030 1038L1031 1039L1030 1038M86 1039L87 1040L86 1039M1028 1039L1028 1041L1030 1039L1028 1039M87.3333 1040.67L87.6667 1041.33L87.3333 1040.67M982 1040L983 1041L982 1040M1027 1041L1024 1046L1027 1041M88 1042L90 1044L90 1042L88 1042M595 1042L596 1043L595 1042M90 1044L91 1045L90 1044M91 1045L92 1046L91 1045M92 1046L93 1047L92 1046M510.667 1046.33L511.333 1046.67L510.667 1046.33M1023 1046L1024 1047L1023 1046M93 1047L94 1048L93 1047M502.667 1047.33L503.333 1047.67L502.667 1047.33M1022 1047L1023 1048L1022 1047M94 1048L95 1049L94 1048M1021 1048L1022 1049L1021 1048M95 1049L96 1050L95 1049M972 1049L973 1050L972 1049M1020 1049L1021 1050L1020 1049M96 1050L97 1051L96 1050M457 1050L458 1051L457 1050M955 1050L955 1051L960 1051L955 1050M1019 1050L1020 1051L1019 1050M97 1051L98 1052L97 1051M435.667 1051.33L436.333 1051.67L435.667 1051.33M445 1051L446 1052L445 1051M1018 1051L1019 1052L1018 1051M98 1052L99 1053L98 1052M412 1052L413 1053L412 1052M896 1052L896 1053L899 1053L896 1052M1017 1052L1018 1053L1017 1052M99 1053L100 1054L99 1053M1016 1053L1017 1054L1016 1053M100 1054L101 1055L100 1054M1015 1054L1016 1055L1015 1054M101 1055L102 1056L101 1055M367 1055L368 1056L367 1055M1014 1055L1015 1056L1014 1055M102 1056L102 1058L104 1058L102 1056M1013 1056L1014 1057L1013 1056M1012 1057L1013 1058L1012 1057M104 1058L105 1059L104 1058M1011 1058L1012 1059L1011 1058M105 1059L106 1060L105 1059M300 1059L301 1060L300 1059M902 1059L903 1060L902 1059M1010 1059L1011 1060L1010 1059M106 1060L107 1061L106 1060M1009 1060L1010 1061L1009 1060M107 1061L108 1062L107 1061M912 1061L913 1062L912 1061M1008 1061L1009 1062L1008 1061M108 1062L109 1063L108 1062M270 1062L271 1063L270 1062M1007 1062L1008 1063L1007 1062M109 1063L110 1064L109 1063M1006 1063L1007 1064L1006 1063M110 1064L110 1066L112 1066L110 1064M931 1064L932 1065L931 1064M950 1064L951 1065L950 1064M1005 1064L1006 1065L1005 1064M1004 1065L1005 1066L1004 1065M112 1066L113 1067L112 1066M266 1066L267 1067L266 1066M1003 1066L1004 1067L1003 1066M113 1067L114 1068L113 1067M1002 1067L1003 1068L1002 1067M114 1068L115 1069L114 1068M949 1068L950 1069L949 1068M1001 1068L1002 1069L1001 1068M115 1069L116 1070L115 1069M1000 1069L1001 1070L1000 1069M116 1070L117 1071L116 1070M999 1070L1000 1071L999 1070M117 1071L118 1072L117 1071M998 1071L999 1072L998 1071M118 1072L120 1074L120 1072L118 1072M992 1077L998 1072L992 1077M120 1074L124 1077L120 1074M124 1077L125 1078L124 1077M595 1077L595 1078L607 1078L595 1077M936 1077L937 1078L936 1077M991 1077L992 1078L991 1077M125 1078L126 1079L125 1078M990 1078L991 1079L990 1078M126 1079C131.331 1086.56 140.573 1095.02 149 1099L126 1079M988 1079L988 1081L990 1079L988 1079z"/>
<path style="fill:#8e9fc2; stroke:none;" d="M128.667 1080.33L129.333 1080.67L128.667 1080.33z"/>
<path style="fill:#494949; stroke:none;" d="M406 1080L407 1081L406 1080M408 1080L408 1081L416 1081L408 1080z"/>
<path style="fill:#8e9fc2; stroke:none;" d="M130 1081L135 1086L130 1081z"/>
<path style="fill:#494949; stroke:none;" d="M986.667 1081.33L987.333 1081.67L986.667 1081.33M928 1082L929 1083L928 1082M985.333 1082.67L985.667 1083.33L985.333 1082.67M614 1084L615 1085L614 1084M981 1087L985 1084L981 1087M920 1085L920 1086L923 1086L920 1085z"/>
<path style="fill:#8e9fc2; stroke:none;" d="M135 1086L141 1091L135 1086z"/>
<path style="fill:#494949; stroke:none;" d="M907 1087L908 1088L907 1087M980 1087L979 1089L981 1089L980 1087M976 1091L979 1089L976 1091z"/>
<path style="fill:#8e9fc2; stroke:none;" d="M141 1091L142 1092L141 1091z"/>
<path style="fill:#494949; stroke:none;" d="M975 1091L972 1095L975 1091z"/>
<path style="fill:#8e9fc2; stroke:none;" d="M142 1092L143 1093L142 1092z"/>
<path style="fill:#494949; stroke:none;" d="M850 1092L851 1093L850 1092z"/>
<path style="fill:#8e9fc2; stroke:none;" d="M143.667 1093.33L144.333 1093.67L143.667 1093.33M145 1094L145 1096L147 1096L145 1094z"/>
<path style="fill:#494949; stroke:none;" d="M971 1095L972 1096L971 1095z"/>
<path style="fill:#8e9fc2; stroke:none;" d="M147 1096L148 1097L147 1096z"/>
<path style="fill:#494949; stroke:none;" d="M542 1096L542 1097L545 1097L542 1096M546 1096L547 1097L546 1096M967 1099L971 1096L967 1099z"/>
<path style="fill:#8e9fc2; stroke:none;" d="M148 1097L149 1098L148 1097M149 1098L150 1099L149 1098z"/>
<path style="fill:#494949; stroke:none;" d="M530 1098L531 1099L530 1098z"/>
</svg>
