<svg width="63" height="88" viewBox="0 0 63 88" fill="none" xmlns="http://www.w3.org/2000/svg">
<path d="M34.6028 87.7946H28.3282C26.6646 87.7929 25.0696 87.1344 23.8932 85.9636C22.7169 84.7928 22.0553 83.2052 22.0536 81.5494V37.8331H6.36717C4.70356 37.8314 3.10856 37.1729 1.93221 36.0021C0.755855 34.8312 0.0942515 33.2437 0.0925903 31.5879V25.3427C0.0942515 23.6869 0.755855 22.0994 1.93221 20.9285C3.10856 19.7577 4.70356 19.0992 6.36717 19.0975H22.0536V6.60713C22.0553 4.95131 22.7169 3.36378 23.8932 2.19294C25.0696 1.0221 26.6646 0.363592 28.3282 0.361938H34.6028C36.2664 0.363592 37.8614 1.0221 39.0377 2.19294C40.2141 3.36378 40.8757 4.95131 40.8774 6.60713V19.0975H56.5638C58.2274 19.0992 59.8224 19.7577 60.9988 20.9285C62.1751 22.0994 62.8367 23.6869 62.8384 25.3427V31.5879C62.8367 33.2437 62.1751 34.8312 60.9988 36.0021C59.8224 37.1729 58.2274 37.8314 56.5638 37.8331H40.8774V81.5494C40.8757 83.2052 40.2141 84.7928 39.0377 85.9636C37.8614 87.1344 36.2664 87.7929 34.6028 87.7946ZM6.36717 25.3427V31.5879H28.3282V81.5494H34.6028V31.5879H56.5638V25.3427H34.6028V6.60713H28.3282V25.3427H6.36717Z" fill="white"/>
</svg>
