<svg width="97" height="78" viewBox="0 0 97 78" fill="none" xmlns="http://www.w3.org/2000/svg">
<path d="M93.7396 25.1092C95.9185 26.3934 96.8885 29.3053 95.4708 31.6049C94.3216 33.7851 91.4115 34.7557 89.1132 33.3371L48.3115 10.8649L7.78443 33.3371C5.4787 34.7557 2.57154 33.7851 1.29033 31.6049C0.00942415 29.3053 0.840084 26.3934 3.14611 25.1092L46.1327 1.22087C47.5653 0.419133 49.3264 0.419133 50.759 1.22087L93.7396 25.1092ZM42.342 30.485C42.342 27.1848 45.1477 24.5119 48.3115 24.5119C51.744 24.5119 54.2811 27.1848 54.2811 30.485C54.2811 33.7851 51.744 36.4581 48.3115 36.4581C45.1477 36.4581 42.342 33.7851 42.342 30.485ZM16.0761 44.8204C16.0761 41.5203 18.8818 38.8473 22.0456 38.8473C25.4781 38.8473 28.0152 41.5203 28.0152 44.8204C28.0152 48.1205 25.4781 50.7935 22.0456 50.7935C18.8818 50.7935 16.0761 48.1205 16.0761 44.8204ZM80.547 44.8204C80.547 48.1205 78.0099 50.7935 74.5774 50.7935C71.4136 50.7935 68.6079 48.1205 68.6079 44.8204C68.6079 41.5203 71.4136 38.8473 74.5774 38.8473C78.0099 38.8473 80.547 41.5203 80.547 44.8204ZM34.5518 73.9989L30.403 66.5475V72.2966C30.403 74.9397 28.4032 77.0751 25.6273 77.0751H18.4639C15.9567 77.0751 13.6883 74.9397 13.6883 72.2966V66.5475L9.81258 73.9989C8.87387 75.7311 6.70246 76.3882 4.96085 75.4474C3.21924 74.5066 2.56707 72.3414 3.50577 70.5943L9.15742 60.0966C11.4482 55.8407 15.897 53.1827 20.7174 53.1827H23.6425C26.0751 53.1827 28.4032 53.8547 30.4179 55.0642L35.4174 45.7611C37.7156 41.5053 42.1629 38.7129 46.9833 38.7129H49.9084C54.7288 38.7129 59.1761 41.5053 61.4743 45.7611L66.4738 55.0642C68.4885 53.8547 70.8166 53.1827 73.2492 53.1827H76.1743C80.9947 53.1827 85.442 55.8407 87.7402 60.0966L93.3814 70.5943C94.3216 72.3414 93.665 74.5066 91.9338 75.4474C90.1878 76.3882 88.0238 75.7311 87.0836 73.9989L82.9348 66.5475V72.2966C82.9348 74.9397 80.935 77.0751 78.1591 77.0751H70.9957C68.4885 77.0751 66.2201 74.9397 66.2201 72.2966V66.5475L62.3399 73.9989C61.3997 75.7311 59.2358 76.3882 57.4897 75.4474C55.6242 74.5066 55.1019 72.3414 56.0421 70.5943L61.4594 60.5147C61.2057 60.2758 60.9818 59.992 60.8177 59.6635L56.6689 52.2121V60.3504C56.6689 62.9935 54.6691 65.1289 51.8932 65.1289H44.7298C42.2226 65.1289 39.9542 62.9935 39.9542 60.3504V52.2121L36.074 59.6635C35.7755 59.992 35.686 60.2758 35.4323 60.5147L40.8496 70.5943C41.7898 72.3414 41.1332 74.5066 39.402 75.4474C37.6559 76.3882 35.492 75.7311 34.5518 73.9989Z" fill="white"/>
</svg>
