<svg width="42" height="43" viewBox="0 0 42 43" fill="none" xmlns="http://www.w3.org/2000/svg">
<path fill-rule="evenodd" clip-rule="evenodd" d="M12.3423 0.952433C14.5816 0.849128 15.2956 0.826172 21 0.826172C26.7044 0.826172 27.4184 0.851041 29.6558 0.952433C31.8933 1.05382 33.4205 1.41156 34.7569 1.93C36.1563 2.45991 37.4258 3.28826 38.4758 4.35956C39.5449 5.40982 40.3696 6.68009 40.8965 8.08426C41.4158 9.42339 41.7709 10.9538 41.874 13.1921C41.9771 15.4399 42 16.1554 42 21.8696C42 27.5858 41.9752 28.3013 41.874 30.5453C41.7728 32.7836 41.4158 34.314 40.8965 35.6531C40.3696 37.0575 39.5435 38.3299 38.4758 39.3816C37.4258 40.453 36.1563 41.2794 34.7569 41.8074C33.4205 42.3277 31.8933 42.6836 29.6596 42.7869C27.4184 42.8902 26.7044 42.9131 21 42.9131C15.2956 42.9131 14.5816 42.8883 12.3423 42.7869C10.1086 42.6855 8.58136 42.3277 7.245 41.8074C5.84358 41.2793 4.57384 40.4515 3.52418 39.3816C2.45582 38.3308 1.62906 37.059 1.10155 35.655C0.584182 34.3159 0.229091 32.7855 0.126 30.5472C0.0229091 28.2994 0 27.5839 0 21.8696C0 16.1535 0.0248182 15.438 0.126 13.1959C0.227182 10.9538 0.584182 9.42339 1.10155 8.08426C1.62983 6.68024 2.45723 5.40851 3.52609 4.35765C4.57426 3.2873 5.84272 2.45885 7.24309 1.93C8.57945 1.41156 10.1067 1.05574 12.3404 0.952433H12.3423ZM29.4859 4.74026C27.2714 4.63887 26.607 4.61782 21 4.61782C15.393 4.61782 14.7286 4.63887 12.5141 4.74026C10.4656 4.834 9.35455 5.17643 8.61382 5.4653C7.63445 5.84791 6.93382 6.3013 6.19882 7.03782C5.50209 7.71705 4.96589 8.54393 4.62955 9.45782C4.34127 10.2001 3.99955 11.3135 3.906 13.3662C3.80482 15.5853 3.78382 16.251 3.78382 21.8696C3.78382 27.4883 3.80482 28.154 3.906 30.3731C3.99955 32.4258 4.34127 33.5392 4.62955 34.2815C4.96555 35.194 5.502 36.0223 6.19882 36.7015C6.87655 37.3997 7.70318 37.9373 8.61382 38.274C9.35455 38.5629 10.4656 38.9053 12.5141 38.999C14.7286 39.1004 15.3911 39.1215 21 39.1215C26.6089 39.1215 27.2714 39.1004 29.4859 38.999C31.5344 38.9053 32.6455 38.5629 33.3862 38.274C34.3655 37.8914 35.0662 37.438 35.8012 36.7015C36.498 36.0223 37.0345 35.194 37.3705 34.2815C37.6587 33.5392 38.0005 32.4258 38.094 30.3731C38.1952 28.154 38.2162 27.4883 38.2162 21.8696C38.2162 16.251 38.1952 15.5853 38.094 13.3662C38.0005 11.3135 37.6587 10.2001 37.3705 9.45782C36.9886 8.47643 36.5362 7.77435 35.8012 7.03782C35.1233 6.3397 34.2982 5.8024 33.3862 5.4653C32.6455 5.17643 31.5344 4.834 29.4859 4.74026ZM18.3177 28.3568C19.8157 28.9816 21.4837 29.066 23.0369 28.5954C24.59 28.1248 25.9319 27.1284 26.8334 25.7766C27.7349 24.4247 28.1401 22.8011 27.9797 21.1831C27.8193 19.5651 27.1034 18.0531 25.9541 16.9053C25.2215 16.1716 24.3356 15.6098 23.3603 15.2604C22.385 14.9109 21.3445 14.7825 20.3137 14.8844C19.2829 14.9863 18.2875 15.3159 17.3991 15.8496C16.5107 16.3832 15.7514 17.1076 15.1759 17.9706C14.6005 18.8336 14.2231 19.8137 14.071 20.8404C13.9189 21.867 13.9958 22.9147 14.2963 23.908C14.5968 24.9013 15.1133 25.8155 15.8086 26.5848C16.504 27.354 17.3609 27.9592 18.3177 28.3568ZM13.3675 14.2213C14.3698 13.2169 15.5597 12.4202 16.8693 11.8766C18.1789 11.333 19.5825 11.0533 21 11.0533C22.4175 11.0533 23.8211 11.333 25.1307 11.8766C26.4403 12.4202 27.6302 13.2169 28.6325 14.2213C29.6349 15.2257 30.4299 16.4181 30.9724 17.7304C31.5149 19.0427 31.794 20.4492 31.794 21.8696C31.794 23.2901 31.5149 24.6966 30.9724 26.0089C30.4299 27.3212 29.6349 28.5136 28.6325 29.518C26.6083 31.5465 23.8628 32.686 21 32.686C18.1372 32.686 15.3917 31.5465 13.3675 29.518C11.3432 27.4895 10.206 24.7383 10.206 21.8696C10.206 19.001 11.3432 16.2498 13.3675 14.2213ZM34.188 12.6641C34.4364 12.4293 34.6352 12.147 34.7728 11.8338C34.9103 11.5206 34.9837 11.1829 34.9887 10.8408C34.9937 10.4987 34.9301 10.159 34.8017 9.84198C34.6734 9.52492 34.4828 9.23689 34.2414 8.99494C33.9999 8.753 33.7125 8.56206 33.3961 8.43342C33.0797 8.30479 32.7407 8.24108 32.3993 8.24607C32.0579 8.25106 31.7209 8.32464 31.4084 8.46246C31.0959 8.60028 30.8141 8.79954 30.5798 9.04843C30.1241 9.53249 29.8747 10.1754 29.8843 10.8408C29.894 11.5062 30.1621 12.1416 30.6317 12.6121C31.1012 13.0827 31.7353 13.3513 32.3993 13.361C33.0633 13.3707 33.7049 13.1207 34.188 12.6641Z" fill="#A6A6A6"/>
</svg>
