<svg width="62" height="69" viewBox="0 0 62 69" fill="none" xmlns="http://www.w3.org/2000/svg">
<path d="M13.1328 55.1665C20.2985 55.1665 26.1259 49.2093 26.1259 41.884V8.19628L55.3603 19.0614V43.7336C53.3947 42.5364 51.1518 41.8978 48.8638 41.884C41.6981 41.884 35.8707 47.8412 35.8707 55.1665C35.8707 62.4918 41.6981 68.449 48.8638 68.449C56.0295 68.449 61.8569 62.4918 61.8569 55.1665V16.7369C61.8573 16.0556 61.6524 15.3907 61.2699 14.8328C60.8875 14.2748 60.3461 13.851 59.7195 13.6189L23.9885 0.336365C23.498 0.153056 22.9715 0.0934838 22.4536 0.162708C21.9358 0.231932 21.4419 0.427908 21.014 0.733987C20.5861 1.04007 20.2368 1.44721 19.9957 1.92082C19.7546 2.39444 19.629 2.92054 19.6293 3.45443V30.4511C17.6637 29.2539 15.4208 28.6153 13.1328 28.6015C5.96711 28.6015 0.139709 34.5587 0.139709 41.884C0.139709 49.2093 5.96711 55.1665 13.1328 55.1665Z" fill="white"/>
</svg>
