<svg width="42" height="43" viewBox="0 0 42 43" fill="none" xmlns="http://www.w3.org/2000/svg">
<path d="M7.66895 0.826172C3.42069 0.826172 0 4.25394 0 8.51098V35.2283C0 39.4853 3.42069 42.9131 7.66895 42.9131H22.1196V26.4597H17.7778V20.536H22.1196V15.4751C22.1196 11.4989 24.6849 7.84811 30.5944 7.84811C32.987 7.84811 34.7563 8.07829 34.7563 8.07829L34.6172 13.6101C34.6172 13.6101 32.8128 13.593 30.8438 13.593C28.7127 13.593 28.371 14.5769 28.371 16.2103V20.536H34.7865L34.5069 26.4598H28.371V42.9131H34.3311C38.5793 42.9131 42 39.4854 42 35.2283V8.51102C42 4.25398 38.5793 0.826214 34.3311 0.826214H7.66891L7.66895 0.826172Z" fill="#A6A6A6"/>
</svg>
