<svg width="42" height="43" viewBox="0 0 42 43" fill="none" xmlns="http://www.w3.org/2000/svg">
<path fill-rule="evenodd" clip-rule="evenodd" d="M42 21.8696C42 33.4909 32.5972 42.9131 21 42.9131C9.40275 42.9131 0 33.4909 0 21.8696C0 10.2484 9.40275 0.826172 21 0.826172C32.5972 0.826172 42 10.2484 42 21.8696ZM21.7525 16.3615C19.7103 17.212 15.6275 18.9744 9.506 21.6469C8.512 22.0433 7.9905 22.4308 7.94325 22.8096C7.86275 23.4514 8.66425 23.7039 9.75275 24.0459C9.9015 24.0932 10.0555 24.1406 10.213 24.1932C11.2857 24.5422 12.7278 24.9508 13.4768 24.9665C14.1575 24.9806 14.917 24.7 15.7553 24.1248C21.4743 20.2546 24.4265 18.2993 24.612 18.2572C24.7432 18.2274 24.9252 18.1888 25.0477 18.2993C25.1702 18.408 25.158 18.6149 25.1458 18.671C25.0653 19.0095 21.9258 21.9363 20.2983 23.4514C19.7908 23.9231 19.432 24.2581 19.3585 24.3352C19.194 24.5053 19.026 24.6684 18.865 24.8245C17.8675 25.7855 17.122 26.508 18.907 27.6864C19.7645 28.2528 20.4505 28.7211 21.1348 29.1875C21.882 29.6978 22.6275 30.2064 23.5935 30.8412C23.8385 31.0025 24.073 31.1691 24.3022 31.3322C25.172 31.9547 25.9543 32.5124 26.9202 32.4247C27.4803 32.3721 28.0612 31.8443 28.3552 30.2677C29.05 26.5395 30.4185 18.4659 30.7352 15.1375C30.7545 14.8611 30.7428 14.5835 30.7002 14.3098C30.6748 14.0887 30.5674 13.8853 30.3993 13.7399C30.149 13.5347 29.7605 13.4908 29.5855 13.4943C28.7962 13.5084 27.5853 13.931 21.7525 16.3615Z" fill="#A6A6A6"/>
</svg>
